<mxfile host="Electron" modified="2024-02-05T23:23:00.629Z" agent="Mozilla/5.0 (X11; Linux x86_64) AppleWebKit/537.36 (KHTML, like Gecko) draw.io/23.0.2 Chrome/120.0.6099.109 Electron/28.2.0 Safari/537.36" etag="INrRVXPxCVqFAJMg4wAL" version="23.0.2" type="device">
  <diagram id="NsEqr2qmKDmTfBZSC55Z" name="Page-1">
    <mxGraphModel dx="1114" dy="878" grid="1" gridSize="10" guides="1" tooltips="1" connect="1" arrows="1" fold="1" page="1" pageScale="1" pageWidth="827" pageHeight="1169" math="0" shadow="0">
      <root>
        <mxCell id="0" />
        <mxCell id="1" parent="0" />
        <mxCell id="WgwYhn672aMjrz9LX4LE-5" value="" style="rounded=0;whiteSpace=wrap;html=1;fillColor=#000000;strokeColor=none;" parent="1" vertex="1">
          <mxGeometry x="40" y="40" width="320" height="240" as="geometry" />
        </mxCell>
        <mxCell id="WgwYhn672aMjrz9LX4LE-12" value="&lt;font style=&quot;font-size: 55px&quot;&gt;&lt;b&gt;17.3&lt;/b&gt;&lt;/font&gt;&lt;br&gt;°C" style="ellipse;whiteSpace=wrap;html=1;aspect=fixed;fontColor=#FFFFFF;fillColor=#000000;strokeWidth=20;strokeColor=#0033FF;" parent="1" vertex="1">
          <mxGeometry x="130" y="90" width="140" height="140" as="geometry" />
        </mxCell>
        <mxCell id="WgwYhn672aMjrz9LX4LE-14" value="Winter" style="text;html=1;strokeColor=none;fillColor=none;align=center;verticalAlign=middle;whiteSpace=wrap;rounded=0;fontColor=#FFFFFF;" parent="1" vertex="1">
          <mxGeometry x="300" y="260" width="60" height="20" as="geometry" />
        </mxCell>
        <mxCell id="WgwYhn672aMjrz9LX4LE-16" value="" style="rounded=0;whiteSpace=wrap;html=1;fillColor=#000000;strokeColor=none;" parent="1" vertex="1">
          <mxGeometry x="400" y="40" width="320" height="240" as="geometry" />
        </mxCell>
        <mxCell id="WgwYhn672aMjrz9LX4LE-19" value="Winter" style="text;html=1;strokeColor=none;fillColor=none;align=center;verticalAlign=middle;whiteSpace=wrap;rounded=0;fontColor=#FFFFFF;" parent="1" vertex="1">
          <mxGeometry x="660" y="260" width="60" height="20" as="geometry" />
        </mxCell>
        <mxCell id="WgwYhn672aMjrz9LX4LE-23" value="Program" style="rounded=0;whiteSpace=wrap;html=1;fontColor=#FFFFFF;strokeWidth=1;strokeColor=#FFFFFF;fillColor=none;fontSize=20;" parent="1" vertex="1">
          <mxGeometry x="520" y="70" width="80" height="40.76" as="geometry" />
        </mxCell>
        <mxCell id="WgwYhn672aMjrz9LX4LE-24" value="Manual" style="rounded=0;whiteSpace=wrap;html=1;fontColor=#FFFFFF;strokeWidth=1;strokeColor=#FFFFFF;fillColor=none;fontSize=20;" parent="1" vertex="1">
          <mxGeometry x="430" y="140" width="80" height="40" as="geometry" />
        </mxCell>
        <mxCell id="WgwYhn672aMjrz9LX4LE-25" value="Summer" style="rounded=0;whiteSpace=wrap;html=1;fontColor=#FFFFFF;strokeWidth=1;strokeColor=#FFFFFF;fillColor=none;fontSize=20;" parent="1" vertex="1">
          <mxGeometry x="610" y="140" width="80" height="40" as="geometry" />
        </mxCell>
        <mxCell id="WgwYhn672aMjrz9LX4LE-26" value="Back" style="rounded=0;whiteSpace=wrap;html=1;fontColor=#FFFFFF;strokeWidth=1;strokeColor=#FFFFFF;fillColor=none;fontSize=20;" parent="1" vertex="1">
          <mxGeometry x="520" y="210" width="80" height="40" as="geometry" />
        </mxCell>
        <mxCell id="WgwYhn672aMjrz9LX4LE-40" value="Winter mode - Main Screen" style="text;html=1;strokeColor=none;fillColor=none;align=center;verticalAlign=middle;whiteSpace=wrap;rounded=0;" parent="1" vertex="1">
          <mxGeometry x="40" y="10" width="320" height="30" as="geometry" />
        </mxCell>
        <mxCell id="WgwYhn672aMjrz9LX4LE-41" value="Winter mode -&amp;nbsp;Mode select" style="text;html=1;strokeColor=none;fillColor=none;align=center;verticalAlign=middle;whiteSpace=wrap;rounded=0;" parent="1" vertex="1">
          <mxGeometry x="400" y="10" width="320" height="30" as="geometry" />
        </mxCell>
        <mxCell id="WgwYhn672aMjrz9LX4LE-391" value="" style="rounded=0;whiteSpace=wrap;html=1;fillColor=#000000;strokeColor=none;" parent="1" vertex="1">
          <mxGeometry x="40" y="1000" width="320" height="240" as="geometry" />
        </mxCell>
        <mxCell id="WgwYhn672aMjrz9LX4LE-392" value="&lt;font style=&quot;font-size: 55px&quot;&gt;&lt;b&gt;18.6&lt;/b&gt;&lt;/font&gt;&lt;br&gt;°C" style="ellipse;whiteSpace=wrap;html=1;aspect=fixed;fontColor=#FFFFFF;fillColor=#000000;strokeWidth=20;strokeColor=#FF9100;" parent="1" vertex="1">
          <mxGeometry x="130" y="1050" width="140" height="140" as="geometry" />
        </mxCell>
        <mxCell id="WgwYhn672aMjrz9LX4LE-394" value="Manual" style="text;html=1;strokeColor=none;fillColor=none;align=center;verticalAlign=middle;whiteSpace=wrap;rounded=0;fontColor=#FFFFFF;" parent="1" vertex="1">
          <mxGeometry x="300" y="1220" width="60" height="20" as="geometry" />
        </mxCell>
        <mxCell id="WgwYhn672aMjrz9LX4LE-396" value="Manual mode - Main Screen" style="text;html=1;strokeColor=none;fillColor=none;align=center;verticalAlign=middle;whiteSpace=wrap;rounded=0;" parent="1" vertex="1">
          <mxGeometry x="40" y="970" width="320" height="30" as="geometry" />
        </mxCell>
        <mxCell id="WgwYhn672aMjrz9LX4LE-397" value="" style="rounded=0;whiteSpace=wrap;html=1;fillColor=#000000;strokeColor=none;" parent="1" vertex="1">
          <mxGeometry x="400" y="1000" width="320" height="240" as="geometry" />
        </mxCell>
        <mxCell id="WgwYhn672aMjrz9LX4LE-398" value="&lt;font size=&quot;1&quot;&gt;&lt;b style=&quot;font-size: 38px&quot;&gt;20.0&lt;/b&gt;&lt;/font&gt;&lt;br&gt;&lt;font style=&quot;font-size: 20px&quot;&gt;°C&lt;/font&gt;" style="ellipse;whiteSpace=wrap;html=1;aspect=fixed;fontColor=#FFFFFF;fillColor=#000000;strokeWidth=4;strokeColor=#FF9100;spacing=2;spacingBottom=0;" parent="1" vertex="1">
          <mxGeometry x="515" y="1075" width="90" height="90" as="geometry" />
        </mxCell>
        <mxCell id="WgwYhn672aMjrz9LX4LE-400" value="Manual" style="text;html=1;strokeColor=none;fillColor=none;align=center;verticalAlign=middle;whiteSpace=wrap;rounded=0;fontColor=#FFFFFF;fontSize=12;" parent="1" vertex="1">
          <mxGeometry x="660" y="1220" width="60" height="20" as="geometry" />
        </mxCell>
        <mxCell id="WgwYhn672aMjrz9LX4LE-402" value="Summer" style="rounded=0;whiteSpace=wrap;html=1;fontColor=#FFFFFF;strokeWidth=1;strokeColor=#FFFFFF;fillColor=none;fontSize=18;" parent="1" vertex="1">
          <mxGeometry x="480" y="1030" width="80" height="40" as="geometry" />
        </mxCell>
        <mxCell id="WgwYhn672aMjrz9LX4LE-403" value="-.5" style="rounded=0;whiteSpace=wrap;html=1;fontColor=#FFFFFF;strokeWidth=1;strokeColor=#FFFFFF;fillColor=#0D0A6E;fontSize=18;" parent="1" vertex="1">
          <mxGeometry x="420" y="1080" width="80" height="40" as="geometry" />
        </mxCell>
        <mxCell id="WgwYhn672aMjrz9LX4LE-404" value="+.5" style="rounded=0;whiteSpace=wrap;html=1;fontColor=#FFFFFF;strokeWidth=1;strokeColor=#FFFFFF;fillColor=#660000;fontSize=18;" parent="1" vertex="1">
          <mxGeometry x="620" y="1080" width="80" height="40" as="geometry" />
        </mxCell>
        <mxCell id="WgwYhn672aMjrz9LX4LE-405" value="Back" style="rounded=0;whiteSpace=wrap;html=1;fontColor=#FFFFFF;strokeWidth=1;strokeColor=#FFFFFF;fillColor=none;fontSize=18;" parent="1" vertex="1">
          <mxGeometry x="520" y="1170" width="80" height="40" as="geometry" />
        </mxCell>
        <mxCell id="WgwYhn672aMjrz9LX4LE-406" value="Manual mode -&amp;nbsp;Mode select" style="text;html=1;strokeColor=none;fillColor=none;align=center;verticalAlign=middle;whiteSpace=wrap;rounded=0;" parent="1" vertex="1">
          <mxGeometry x="400" y="970" width="320" height="30" as="geometry" />
        </mxCell>
        <mxCell id="WgwYhn672aMjrz9LX4LE-408" value="- 1" style="rounded=0;whiteSpace=wrap;html=1;fontColor=#FFFFFF;strokeWidth=1;strokeColor=#FFFFFF;fillColor=#0D0A6E;fontSize=18;" parent="1" vertex="1">
          <mxGeometry x="420" y="1120" width="80" height="40" as="geometry" />
        </mxCell>
        <mxCell id="WgwYhn672aMjrz9LX4LE-409" value="+ 1" style="rounded=0;whiteSpace=wrap;html=1;fontColor=#FFFFFF;strokeWidth=1;strokeColor=#FFFFFF;fillColor=#660000;fontSize=18;" parent="1" vertex="1">
          <mxGeometry x="620" y="1120" width="80" height="40" as="geometry" />
        </mxCell>
        <mxCell id="WgwYhn672aMjrz9LX4LE-410" value="Target: 20 °C" style="text;html=1;strokeColor=none;fillColor=none;align=center;verticalAlign=middle;whiteSpace=wrap;rounded=0;fontColor=#FFFFFF;" parent="1" vertex="1">
          <mxGeometry x="120" y="1210" width="160" height="30" as="geometry" />
        </mxCell>
        <mxCell id="WgwYhn672aMjrz9LX4LE-412" value="Winter" style="rounded=0;whiteSpace=wrap;html=1;fontColor=#FFFFFF;strokeWidth=1;strokeColor=#FFFFFF;fillColor=none;fontSize=18;" parent="1" vertex="1">
          <mxGeometry x="560" y="1030" width="80" height="40" as="geometry" />
        </mxCell>
        <mxCell id="WgwYhn672aMjrz9LX4LE-413" value="Target: 16 °C" style="text;html=1;strokeColor=none;fillColor=none;align=center;verticalAlign=middle;whiteSpace=wrap;rounded=0;fontColor=#FFFFFF;" parent="1" vertex="1">
          <mxGeometry x="120" y="250" width="160" height="30" as="geometry" />
        </mxCell>
        <mxCell id="O3yq7dCNjTLRgfPNd26q-7" value="Winter mode -&amp;nbsp;Program" style="text;html=1;strokeColor=none;fillColor=none;align=center;verticalAlign=middle;whiteSpace=wrap;rounded=0;" parent="1" vertex="1">
          <mxGeometry x="40" y="330" width="320" height="30" as="geometry" />
        </mxCell>
        <mxCell id="O3yq7dCNjTLRgfPNd26q-105" value="" style="rounded=0;whiteSpace=wrap;html=1;fillColor=#000000;strokeColor=none;" parent="1" vertex="1">
          <mxGeometry x="40" y="680" width="320" height="240" as="geometry" />
        </mxCell>
        <mxCell id="O3yq7dCNjTLRgfPNd26q-107" value="Winter" style="text;html=1;strokeColor=none;fillColor=none;align=center;verticalAlign=middle;whiteSpace=wrap;rounded=0;fontColor=#FFFFFF;" parent="1" vertex="1">
          <mxGeometry x="300" y="900" width="60" height="20" as="geometry" />
        </mxCell>
        <mxCell id="O3yq7dCNjTLRgfPNd26q-109" value="Back" style="rounded=0;whiteSpace=wrap;html=1;fontColor=#FFFFFF;strokeWidth=1;strokeColor=#FFFFFF;fillColor=none;" parent="1" vertex="1">
          <mxGeometry x="110" y="890" width="60" height="30" as="geometry" />
        </mxCell>
        <mxCell id="O3yq7dCNjTLRgfPNd26q-111" value="Winter mode -&amp;nbsp;Program - Add/Edit" style="text;html=1;strokeColor=none;fillColor=none;align=center;verticalAlign=middle;whiteSpace=wrap;rounded=0;" parent="1" vertex="1">
          <mxGeometry x="40" y="650" width="320" height="30" as="geometry" />
        </mxCell>
        <mxCell id="O3yq7dCNjTLRgfPNd26q-112" value="Mon" style="rounded=0;whiteSpace=wrap;html=1;fontColor=#FFFFFF;strokeWidth=1;strokeColor=#FFFFFF;fillColor=#C4B702;" parent="1" vertex="1">
          <mxGeometry x="100" y="680" width="30" height="30" as="geometry" />
        </mxCell>
        <mxCell id="O3yq7dCNjTLRgfPNd26q-193" value="2" style="rounded=0;whiteSpace=wrap;html=1;fillColor=none;strokeColor=#FFFFFF;fontColor=#FFFFFF;fontSize=20;" parent="1" vertex="1">
          <mxGeometry x="220" y="800" width="40" height="40" as="geometry" />
        </mxCell>
        <mxCell id="O3yq7dCNjTLRgfPNd26q-201" value="Hour" style="rounded=0;whiteSpace=wrap;html=1;fontColor=#FFFFFF;strokeWidth=1;strokeColor=#FFFFFF;fillColor=#009900;" parent="1" vertex="1">
          <mxGeometry x="55" y="735" width="55" height="30" as="geometry" />
        </mxCell>
        <mxCell id="O3yq7dCNjTLRgfPNd26q-202" value="Minute" style="rounded=0;whiteSpace=wrap;html=1;fontColor=#FFFFFF;strokeWidth=1;strokeColor=#FFFFFF;fillColor=#0D0A6E;" parent="1" vertex="1">
          <mxGeometry x="55" y="765" width="55" height="30" as="geometry" />
        </mxCell>
        <mxCell id="O3yq7dCNjTLRgfPNd26q-203" value="Temp" style="rounded=0;whiteSpace=wrap;html=1;fontColor=#FFFFFF;strokeWidth=1;strokeColor=#FFFFFF;fillColor=#0D0A6E;" parent="1" vertex="1">
          <mxGeometry x="55" y="795" width="55" height="30" as="geometry" />
        </mxCell>
        <mxCell id="O3yq7dCNjTLRgfPNd26q-204" value="5" style="rounded=0;whiteSpace=wrap;html=1;fillColor=none;strokeColor=#FFFFFF;fontColor=#FFFFFF;fontSize=20;" parent="1" vertex="1">
          <mxGeometry x="220" y="760" width="40" height="40" as="geometry" />
        </mxCell>
        <mxCell id="O3yq7dCNjTLRgfPNd26q-205" value="8" style="rounded=0;whiteSpace=wrap;html=1;fillColor=none;strokeColor=#FFFFFF;fontColor=#FFFFFF;fontSize=20;" parent="1" vertex="1">
          <mxGeometry x="220" y="720" width="40" height="40" as="geometry" />
        </mxCell>
        <mxCell id="O3yq7dCNjTLRgfPNd26q-206" value="0" style="rounded=0;whiteSpace=wrap;html=1;fillColor=none;strokeColor=#FFFFFF;fontColor=#FFFFFF;fontSize=20;" parent="1" vertex="1">
          <mxGeometry x="220" y="840" width="40" height="40" as="geometry" />
        </mxCell>
        <mxCell id="O3yq7dCNjTLRgfPNd26q-207" value="7" style="rounded=0;whiteSpace=wrap;html=1;fillColor=none;strokeColor=#FFFFFF;fontColor=#FFFFFF;fontSize=20;" parent="1" vertex="1">
          <mxGeometry x="180" y="720" width="40" height="40" as="geometry" />
        </mxCell>
        <mxCell id="O3yq7dCNjTLRgfPNd26q-208" value="4" style="rounded=0;whiteSpace=wrap;html=1;fillColor=none;strokeColor=#FFFFFF;fontColor=#FFFFFF;fontSize=20;" parent="1" vertex="1">
          <mxGeometry x="180" y="760" width="40" height="40" as="geometry" />
        </mxCell>
        <mxCell id="O3yq7dCNjTLRgfPNd26q-209" value="1" style="rounded=0;whiteSpace=wrap;html=1;fillColor=none;strokeColor=#FFFFFF;fontColor=#FFFFFF;fontSize=20;" parent="1" vertex="1">
          <mxGeometry x="180" y="800" width="40" height="40" as="geometry" />
        </mxCell>
        <mxCell id="O3yq7dCNjTLRgfPNd26q-210" value="9" style="rounded=0;whiteSpace=wrap;html=1;fillColor=none;strokeColor=#FFFFFF;fontColor=#FFFFFF;fontSize=20;" parent="1" vertex="1">
          <mxGeometry x="260" y="720" width="40" height="40" as="geometry" />
        </mxCell>
        <mxCell id="O3yq7dCNjTLRgfPNd26q-211" value="6" style="rounded=0;whiteSpace=wrap;html=1;fillColor=none;strokeColor=#FFFFFF;fontColor=#FFFFFF;fontSize=20;" parent="1" vertex="1">
          <mxGeometry x="260" y="760" width="40" height="40" as="geometry" />
        </mxCell>
        <mxCell id="O3yq7dCNjTLRgfPNd26q-212" value="3" style="rounded=0;whiteSpace=wrap;html=1;fillColor=none;strokeColor=#FFFFFF;fontColor=#FFFFFF;fontSize=20;" parent="1" vertex="1">
          <mxGeometry x="260" y="800" width="40" height="40" as="geometry" />
        </mxCell>
        <mxCell id="O3yq7dCNjTLRgfPNd26q-214" value="16" style="text;html=1;strokeColor=#FFFFFF;fillColor=#009900;align=center;verticalAlign=middle;whiteSpace=wrap;rounded=0;fontColor=#FFFFFF;sketch=0;fontSize=16;" parent="1" vertex="1">
          <mxGeometry x="110" y="735" width="60" height="30" as="geometry" />
        </mxCell>
        <mxCell id="O3yq7dCNjTLRgfPNd26q-215" value="30" style="text;html=1;strokeColor=#FFFFFF;fillColor=none;align=center;verticalAlign=middle;whiteSpace=wrap;rounded=0;fontColor=#FFFFFF;fontSize=16;" parent="1" vertex="1">
          <mxGeometry x="110" y="765" width="60" height="30" as="geometry" />
        </mxCell>
        <mxCell id="O3yq7dCNjTLRgfPNd26q-216" value="22 °C" style="text;html=1;strokeColor=#FFFFFF;fillColor=none;align=center;verticalAlign=middle;whiteSpace=wrap;rounded=0;fontColor=#FFFFFF;fontSize=16;" parent="1" vertex="1">
          <mxGeometry x="110" y="795" width="60" height="30" as="geometry" />
        </mxCell>
        <mxCell id="O3yq7dCNjTLRgfPNd26q-217" value="DEL" style="rounded=0;whiteSpace=wrap;html=1;fillColor=#660000;strokeColor=#FFFFFF;fontColor=#FFFFFF;" parent="1" vertex="1">
          <mxGeometry x="180" y="840" width="40" height="40" as="geometry" />
        </mxCell>
        <mxCell id="O3yq7dCNjTLRgfPNd26q-218" value="SET" style="rounded=0;whiteSpace=wrap;html=1;fillColor=#003300;strokeColor=#FFFFFF;fontColor=#FFFFFF;" parent="1" vertex="1">
          <mxGeometry x="260" y="840" width="40" height="40" as="geometry" />
        </mxCell>
        <mxCell id="O3yq7dCNjTLRgfPNd26q-219" value="Store" style="rounded=0;whiteSpace=wrap;html=1;fontColor=#FFFFFF;strokeWidth=1;strokeColor=#FFFFFF;fillColor=none;" parent="1" vertex="1">
          <mxGeometry x="80" y="840" width="60" height="30" as="geometry" />
        </mxCell>
        <mxCell id="z_o5YdLHFXMN_9M8HcGV-1" value="+1" style="rounded=0;whiteSpace=wrap;html=1;fillColor=#660000;strokeColor=#FFFFFF;fontColor=#FFFFFF;fontSize=20;" parent="1" vertex="1">
          <mxGeometry x="300" y="740" width="40" height="40" as="geometry" />
        </mxCell>
        <mxCell id="z_o5YdLHFXMN_9M8HcGV-2" value="-1" style="rounded=0;whiteSpace=wrap;html=1;fillColor=#0D0A6E;strokeColor=#FFFFFF;fontColor=#FFFFFF;fontSize=20;" parent="1" vertex="1">
          <mxGeometry x="300" y="780" width="40" height="40" as="geometry" />
        </mxCell>
        <mxCell id="z_o5YdLHFXMN_9M8HcGV-17" value="" style="rounded=0;whiteSpace=wrap;html=1;fillColor=#000000;strokeColor=none;" parent="1" vertex="1">
          <mxGeometry x="400" y="360" width="320" height="240" as="geometry" />
        </mxCell>
        <mxCell id="z_o5YdLHFXMN_9M8HcGV-19" value="Winter" style="text;html=1;strokeColor=none;fillColor=none;align=center;verticalAlign=middle;whiteSpace=wrap;rounded=0;fontColor=#FFFFFF;" parent="1" vertex="1">
          <mxGeometry x="660" y="580" width="60" height="20" as="geometry" />
        </mxCell>
        <mxCell id="z_o5YdLHFXMN_9M8HcGV-21" value="Back" style="rounded=0;whiteSpace=wrap;html=1;fontColor=#FFFFFF;strokeWidth=1;strokeColor=#FFFFFF;fillColor=none;" parent="1" vertex="1">
          <mxGeometry x="470" y="570" width="60" height="30" as="geometry" />
        </mxCell>
        <mxCell id="z_o5YdLHFXMN_9M8HcGV-22" value="Add" style="rounded=0;whiteSpace=wrap;html=1;fontColor=#FFFFFF;strokeWidth=1;strokeColor=#FFFFFF;fillColor=none;" parent="1" vertex="1">
          <mxGeometry x="590" y="570" width="60" height="30" as="geometry" />
        </mxCell>
        <mxCell id="z_o5YdLHFXMN_9M8HcGV-23" value="Winter mode -&amp;nbsp;Program - Setpoint selected" style="text;html=1;strokeColor=none;fillColor=none;align=center;verticalAlign=middle;whiteSpace=wrap;rounded=0;" parent="1" vertex="1">
          <mxGeometry x="400" y="330" width="320" height="30" as="geometry" />
        </mxCell>
        <mxCell id="z_o5YdLHFXMN_9M8HcGV-24" value="Mon" style="rounded=0;whiteSpace=wrap;html=1;fontColor=#FFFFFF;strokeWidth=1;strokeColor=#FFFFFF;fillColor=#C4B702;" parent="1" vertex="1">
          <mxGeometry x="460" y="360" width="30" height="30" as="geometry" />
        </mxCell>
        <mxCell id="z_o5YdLHFXMN_9M8HcGV-25" value="Tue" style="rounded=0;whiteSpace=wrap;html=1;fontColor=#FFFFFF;strokeWidth=1;strokeColor=#FFFFFF;fillColor=none;" parent="1" vertex="1">
          <mxGeometry x="490" y="360" width="30" height="30" as="geometry" />
        </mxCell>
        <mxCell id="z_o5YdLHFXMN_9M8HcGV-26" value="Thu" style="rounded=0;whiteSpace=wrap;html=1;fontColor=#FFFFFF;strokeWidth=1;strokeColor=#FFFFFF;fillColor=none;" parent="1" vertex="1">
          <mxGeometry x="550" y="360" width="30" height="30" as="geometry" />
        </mxCell>
        <mxCell id="z_o5YdLHFXMN_9M8HcGV-27" value="Wed" style="rounded=0;whiteSpace=wrap;html=1;fontColor=#FFFFFF;strokeWidth=1;strokeColor=#FFFFFF;fillColor=none;" parent="1" vertex="1">
          <mxGeometry x="520" y="360" width="30" height="30" as="geometry" />
        </mxCell>
        <mxCell id="z_o5YdLHFXMN_9M8HcGV-28" value="Sat" style="rounded=0;whiteSpace=wrap;html=1;fontColor=#FFFFFF;strokeWidth=1;strokeColor=#FFFFFF;fillColor=none;" parent="1" vertex="1">
          <mxGeometry x="610" y="360" width="30" height="30" as="geometry" />
        </mxCell>
        <mxCell id="z_o5YdLHFXMN_9M8HcGV-29" value="Fri" style="rounded=0;whiteSpace=wrap;html=1;fontColor=#FFFFFF;strokeWidth=1;strokeColor=#FFFFFF;fillColor=none;" parent="1" vertex="1">
          <mxGeometry x="580" y="360" width="30" height="30" as="geometry" />
        </mxCell>
        <mxCell id="z_o5YdLHFXMN_9M8HcGV-30" value="Sun" style="rounded=0;whiteSpace=wrap;html=1;fontColor=#FFFFFF;strokeWidth=1;strokeColor=#FFFFFF;fillColor=none;" parent="1" vertex="1">
          <mxGeometry x="640" y="360" width="30" height="30" as="geometry" />
        </mxCell>
        <mxCell id="z_o5YdLHFXMN_9M8HcGV-31" value="00:00" style="text;html=1;strokeColor=none;fillColor=none;align=center;verticalAlign=middle;whiteSpace=wrap;rounded=0;fontColor=#FFFFFF;" parent="1" vertex="1">
          <mxGeometry x="420" y="400" width="30" height="20" as="geometry" />
        </mxCell>
        <mxCell id="z_o5YdLHFXMN_9M8HcGV-32" value="Copy" style="rounded=0;whiteSpace=wrap;html=1;fontColor=#FFFFFF;strokeWidth=1;strokeColor=#FFFFFF;fillColor=none;" parent="1" vertex="1">
          <mxGeometry x="670" y="415" width="50" height="30" as="geometry" />
        </mxCell>
        <mxCell id="z_o5YdLHFXMN_9M8HcGV-34" value="16" style="rounded=0;whiteSpace=wrap;html=1;fillColor=#6666FF;strokeColor=#FFFFFF;fontColor=#FFFFFF;" parent="1" vertex="1">
          <mxGeometry x="420" y="420" width="30" height="20" as="geometry" />
        </mxCell>
        <mxCell id="z_o5YdLHFXMN_9M8HcGV-35" value="06:30" style="text;html=1;strokeColor=none;fillColor=none;align=center;verticalAlign=middle;whiteSpace=wrap;rounded=0;fontColor=#FFFFFF;" parent="1" vertex="1">
          <mxGeometry x="460" y="400" width="30" height="20" as="geometry" />
        </mxCell>
        <mxCell id="z_o5YdLHFXMN_9M8HcGV-36" value="21" style="rounded=0;whiteSpace=wrap;html=1;fillColor=#FF6666;strokeColor=#FFFFFF;fontColor=#FFFFFF;" parent="1" vertex="1">
          <mxGeometry x="460" y="420" width="30" height="20" as="geometry" />
        </mxCell>
        <mxCell id="z_o5YdLHFXMN_9M8HcGV-37" value="08:30" style="text;html=1;strokeColor=none;fillColor=none;align=center;verticalAlign=middle;whiteSpace=wrap;rounded=0;fontColor=#FFFFFF;" parent="1" vertex="1">
          <mxGeometry x="500" y="400" width="30" height="20" as="geometry" />
        </mxCell>
        <mxCell id="z_o5YdLHFXMN_9M8HcGV-38" value="18" style="rounded=0;whiteSpace=wrap;html=1;fillColor=#6666FF;strokeColor=#FFFFFF;fontColor=#FFFFFF;" parent="1" vertex="1">
          <mxGeometry x="500" y="420" width="30" height="20" as="geometry" />
        </mxCell>
        <mxCell id="z_o5YdLHFXMN_9M8HcGV-39" value="16:30" style="text;html=1;strokeColor=none;fillColor=none;align=center;verticalAlign=middle;whiteSpace=wrap;rounded=0;fontColor=#FFFFFF;" parent="1" vertex="1">
          <mxGeometry x="540" y="400" width="30" height="20" as="geometry" />
        </mxCell>
        <mxCell id="z_o5YdLHFXMN_9M8HcGV-40" value="22" style="rounded=0;whiteSpace=wrap;html=1;fillColor=#FF6666;strokeColor=#FFFFFF;fontColor=#FFFFFF;" parent="1" vertex="1">
          <mxGeometry x="540" y="420" width="30" height="20" as="geometry" />
        </mxCell>
        <mxCell id="z_o5YdLHFXMN_9M8HcGV-41" value="21:30" style="text;html=1;strokeColor=none;fillColor=none;align=center;verticalAlign=middle;whiteSpace=wrap;rounded=0;fontColor=#FFFFFF;" parent="1" vertex="1">
          <mxGeometry x="580" y="400" width="30" height="20" as="geometry" />
        </mxCell>
        <mxCell id="z_o5YdLHFXMN_9M8HcGV-42" style="edgeStyle=none;rounded=0;orthogonalLoop=1;jettySize=auto;html=1;exitX=0;exitY=1;exitDx=0;exitDy=0;entryX=0;entryY=0;entryDx=0;entryDy=0;strokeColor=#FFFFFF;endArrow=none;endFill=0;" parent="1" source="z_o5YdLHFXMN_9M8HcGV-43" target="z_o5YdLHFXMN_9M8HcGV-47" edge="1">
          <mxGeometry relative="1" as="geometry" />
        </mxCell>
        <mxCell id="z_o5YdLHFXMN_9M8HcGV-43" value="20" style="rounded=0;whiteSpace=wrap;html=1;fillColor=#FF6666;strokeColor=#FFFFFF;fontColor=#FFFFFF;" parent="1" vertex="1">
          <mxGeometry x="580" y="420" width="30" height="20" as="geometry" />
        </mxCell>
        <mxCell id="z_o5YdLHFXMN_9M8HcGV-44" value="22:30" style="text;html=1;strokeColor=none;fillColor=none;align=center;verticalAlign=middle;whiteSpace=wrap;rounded=0;fontColor=#FFFFFF;" parent="1" vertex="1">
          <mxGeometry x="620" y="400" width="30" height="20" as="geometry" />
        </mxCell>
        <mxCell id="z_o5YdLHFXMN_9M8HcGV-45" value="16" style="rounded=0;whiteSpace=wrap;html=1;fillColor=#6666FF;strokeColor=#FFFFFF;fontColor=#FFFFFF;" parent="1" vertex="1">
          <mxGeometry x="620" y="420" width="30" height="20" as="geometry" />
        </mxCell>
        <mxCell id="z_o5YdLHFXMN_9M8HcGV-46" value="Paste" style="rounded=0;whiteSpace=wrap;html=1;fontColor=#808080;strokeWidth=1;strokeColor=#808080;fillColor=none;" parent="1" vertex="1">
          <mxGeometry x="670" y="460" width="50" height="30" as="geometry" />
        </mxCell>
        <mxCell id="z_o5YdLHFXMN_9M8HcGV-47" value="" style="rounded=0;whiteSpace=wrap;html=1;fillColor=#0D0A6E;strokeColor=#FFFFFF;fontColor=#FFFFFF;" parent="1" vertex="1">
          <mxGeometry x="465" y="450" width="180" height="80" as="geometry" />
        </mxCell>
        <mxCell id="z_o5YdLHFXMN_9M8HcGV-48" style="edgeStyle=none;rounded=0;orthogonalLoop=1;jettySize=auto;html=1;exitX=1;exitY=1;exitDx=0;exitDy=0;entryX=1;entryY=0;entryDx=0;entryDy=0;strokeColor=#FFFFFF;endArrow=none;endFill=0;" parent="1" source="z_o5YdLHFXMN_9M8HcGV-43" target="z_o5YdLHFXMN_9M8HcGV-47" edge="1">
          <mxGeometry relative="1" as="geometry">
            <mxPoint x="630" y="450" as="sourcePoint" />
            <mxPoint x="470" y="480" as="targetPoint" />
          </mxGeometry>
        </mxCell>
        <mxCell id="z_o5YdLHFXMN_9M8HcGV-49" value="Delete" style="rounded=0;whiteSpace=wrap;html=1;fontColor=#FFFFFF;strokeWidth=1;strokeColor=#FFFFFF;fillColor=#000000;" parent="1" vertex="1">
          <mxGeometry x="580" y="495" width="60" height="30" as="geometry" />
        </mxCell>
        <mxCell id="z_o5YdLHFXMN_9M8HcGV-50" value="21" style="text;html=1;strokeColor=none;fillColor=none;align=center;verticalAlign=middle;whiteSpace=wrap;rounded=0;fontColor=#FFFFFF;" parent="1" vertex="1">
          <mxGeometry x="525" y="455" width="30" height="20" as="geometry" />
        </mxCell>
        <mxCell id="z_o5YdLHFXMN_9M8HcGV-51" value="Hour:" style="text;html=1;strokeColor=none;fillColor=none;align=right;verticalAlign=middle;whiteSpace=wrap;rounded=0;fontColor=#FFFFFF;" parent="1" vertex="1">
          <mxGeometry x="475" y="455" width="50" height="20" as="geometry" />
        </mxCell>
        <mxCell id="z_o5YdLHFXMN_9M8HcGV-52" value="Minute:" style="text;html=1;strokeColor=none;fillColor=none;align=right;verticalAlign=middle;whiteSpace=wrap;rounded=0;fontColor=#FFFFFF;" parent="1" vertex="1">
          <mxGeometry x="475" y="480" width="50" height="20" as="geometry" />
        </mxCell>
        <mxCell id="z_o5YdLHFXMN_9M8HcGV-53" value="30" style="text;html=1;strokeColor=none;fillColor=none;align=center;verticalAlign=middle;whiteSpace=wrap;rounded=0;fontColor=#FFFFFF;" parent="1" vertex="1">
          <mxGeometry x="525" y="480" width="30" height="20" as="geometry" />
        </mxCell>
        <mxCell id="z_o5YdLHFXMN_9M8HcGV-54" value="Temp:" style="text;html=1;strokeColor=none;fillColor=none;align=right;verticalAlign=middle;whiteSpace=wrap;rounded=0;fontColor=#FFFFFF;" parent="1" vertex="1">
          <mxGeometry x="475" y="505" width="50" height="20" as="geometry" />
        </mxCell>
        <mxCell id="z_o5YdLHFXMN_9M8HcGV-55" value="20" style="text;html=1;strokeColor=none;fillColor=none;align=center;verticalAlign=middle;whiteSpace=wrap;rounded=0;fontColor=#FFFFFF;" parent="1" vertex="1">
          <mxGeometry x="525" y="505" width="30" height="20" as="geometry" />
        </mxCell>
        <mxCell id="z_o5YdLHFXMN_9M8HcGV-56" value="Edit" style="rounded=0;whiteSpace=wrap;html=1;fontColor=#FFFFFF;strokeWidth=1;strokeColor=#FFFFFF;fillColor=#000000;" parent="1" vertex="1">
          <mxGeometry x="580" y="455" width="60" height="30" as="geometry" />
        </mxCell>
        <mxCell id="z_o5YdLHFXMN_9M8HcGV-58" value="" style="rounded=0;whiteSpace=wrap;html=1;fillColor=#6666FF;strokeColor=none;fontColor=#FFFFFF;" parent="1" vertex="1">
          <mxGeometry x="410" y="556" width="65" height="6" as="geometry" />
        </mxCell>
        <mxCell id="z_o5YdLHFXMN_9M8HcGV-65" value="" style="rounded=0;whiteSpace=wrap;html=1;fillColor=#FF6666;strokeColor=none;fontColor=#FFFFFF;" parent="1" vertex="1">
          <mxGeometry x="475" y="551" width="30" height="11" as="geometry" />
        </mxCell>
        <mxCell id="z_o5YdLHFXMN_9M8HcGV-66" value="" style="rounded=0;whiteSpace=wrap;html=1;fillColor=#6666FF;strokeColor=none;fontColor=#FFFFFF;" parent="1" vertex="1">
          <mxGeometry x="645" y="556" width="15" height="6" as="geometry" />
        </mxCell>
        <mxCell id="z_o5YdLHFXMN_9M8HcGV-67" value="" style="rounded=0;whiteSpace=wrap;html=1;fillColor=#6666FF;strokeColor=none;fontColor=#FFFFFF;" parent="1" vertex="1">
          <mxGeometry x="505" y="554" width="80" height="8" as="geometry" />
        </mxCell>
        <mxCell id="z_o5YdLHFXMN_9M8HcGV-68" value="" style="rounded=0;whiteSpace=wrap;html=1;fillColor=#FF6666;strokeColor=none;fontColor=#FFFFFF;" parent="1" vertex="1">
          <mxGeometry x="585" y="550" width="50" height="12" as="geometry" />
        </mxCell>
        <mxCell id="z_o5YdLHFXMN_9M8HcGV-69" value="" style="rounded=0;whiteSpace=wrap;html=1;fillColor=#FF6666;strokeColor=none;fontColor=#FFFFFF;" parent="1" vertex="1">
          <mxGeometry x="635" y="552" width="10" height="10" as="geometry" />
        </mxCell>
        <mxCell id="z_o5YdLHFXMN_9M8HcGV-103" value="" style="line;strokeWidth=1;direction=south;html=1;fillColor=none;align=right;strokeColor=#FFFFFF;" parent="1" vertex="1">
          <mxGeometry x="410" y="562" width="1" height="3" as="geometry" />
        </mxCell>
        <mxCell id="z_o5YdLHFXMN_9M8HcGV-104" value="" style="line;strokeWidth=1;direction=south;html=1;fillColor=none;align=right;strokeColor=#FFFFFF;" parent="1" vertex="1">
          <mxGeometry x="420" y="562" width="1" height="3" as="geometry" />
        </mxCell>
        <mxCell id="z_o5YdLHFXMN_9M8HcGV-105" value="" style="line;strokeWidth=1;direction=south;html=1;fillColor=none;align=right;strokeColor=#FFFFFF;" parent="1" vertex="1">
          <mxGeometry x="430" y="562" width="1" height="3" as="geometry" />
        </mxCell>
        <mxCell id="z_o5YdLHFXMN_9M8HcGV-106" value="" style="line;strokeWidth=1;direction=south;html=1;fillColor=none;align=right;strokeColor=#FFFFFF;" parent="1" vertex="1">
          <mxGeometry x="440" y="562" width="1" height="3" as="geometry" />
        </mxCell>
        <mxCell id="z_o5YdLHFXMN_9M8HcGV-107" value="" style="line;strokeWidth=1;direction=south;html=1;fillColor=none;align=right;strokeColor=#FFFFFF;" parent="1" vertex="1">
          <mxGeometry x="450" y="562" width="1" height="3" as="geometry" />
        </mxCell>
        <mxCell id="z_o5YdLHFXMN_9M8HcGV-108" value="" style="line;strokeWidth=1;direction=south;html=1;fillColor=none;align=right;strokeColor=#FFFFFF;" parent="1" vertex="1">
          <mxGeometry x="460" y="562" width="1" height="3" as="geometry" />
        </mxCell>
        <mxCell id="z_o5YdLHFXMN_9M8HcGV-109" value="" style="line;strokeWidth=1;direction=south;html=1;fillColor=none;align=right;strokeColor=#FFFFFF;" parent="1" vertex="1">
          <mxGeometry x="470" y="562" width="1" height="3" as="geometry" />
        </mxCell>
        <mxCell id="z_o5YdLHFXMN_9M8HcGV-110" value="" style="line;strokeWidth=1;direction=south;html=1;fillColor=none;align=right;strokeColor=#FFFFFF;" parent="1" vertex="1">
          <mxGeometry x="480" y="562" width="1" height="3" as="geometry" />
        </mxCell>
        <mxCell id="z_o5YdLHFXMN_9M8HcGV-111" value="" style="line;strokeWidth=1;direction=south;html=1;fillColor=none;align=right;strokeColor=#FFFFFF;" parent="1" vertex="1">
          <mxGeometry x="490" y="562" width="1" height="3" as="geometry" />
        </mxCell>
        <mxCell id="z_o5YdLHFXMN_9M8HcGV-112" value="" style="line;strokeWidth=1;direction=south;html=1;fillColor=none;align=right;strokeColor=#FFFFFF;" parent="1" vertex="1">
          <mxGeometry x="500" y="562" width="1" height="3" as="geometry" />
        </mxCell>
        <mxCell id="z_o5YdLHFXMN_9M8HcGV-113" value="" style="line;strokeWidth=1;direction=south;html=1;fillColor=none;align=right;strokeColor=#FFFFFF;" parent="1" vertex="1">
          <mxGeometry x="510" y="562" width="1" height="3" as="geometry" />
        </mxCell>
        <mxCell id="z_o5YdLHFXMN_9M8HcGV-114" value="" style="line;strokeWidth=1;direction=south;html=1;fillColor=none;align=right;strokeColor=#FFFFFF;" parent="1" vertex="1">
          <mxGeometry x="520" y="562" width="1" height="3" as="geometry" />
        </mxCell>
        <mxCell id="z_o5YdLHFXMN_9M8HcGV-115" value="" style="line;strokeWidth=1;direction=south;html=1;fillColor=none;align=right;strokeColor=#FFFFFF;" parent="1" vertex="1">
          <mxGeometry x="530" y="562" width="1" height="3" as="geometry" />
        </mxCell>
        <mxCell id="z_o5YdLHFXMN_9M8HcGV-116" value="" style="line;strokeWidth=1;direction=south;html=1;fillColor=none;align=right;strokeColor=#FFFFFF;" parent="1" vertex="1">
          <mxGeometry x="540" y="562" width="1" height="3" as="geometry" />
        </mxCell>
        <mxCell id="z_o5YdLHFXMN_9M8HcGV-117" value="" style="line;strokeWidth=1;direction=south;html=1;fillColor=none;align=right;strokeColor=#FFFFFF;" parent="1" vertex="1">
          <mxGeometry x="550" y="562" width="1" height="3" as="geometry" />
        </mxCell>
        <mxCell id="z_o5YdLHFXMN_9M8HcGV-118" value="" style="line;strokeWidth=1;direction=south;html=1;fillColor=none;align=right;strokeColor=#FFFFFF;" parent="1" vertex="1">
          <mxGeometry x="560" y="562" width="1" height="3" as="geometry" />
        </mxCell>
        <mxCell id="z_o5YdLHFXMN_9M8HcGV-119" value="" style="line;strokeWidth=1;direction=south;html=1;fillColor=none;align=right;strokeColor=#FFFFFF;" parent="1" vertex="1">
          <mxGeometry x="570" y="562" width="1" height="3" as="geometry" />
        </mxCell>
        <mxCell id="z_o5YdLHFXMN_9M8HcGV-120" value="" style="line;strokeWidth=1;direction=south;html=1;fillColor=none;align=right;strokeColor=#FFFFFF;" parent="1" vertex="1">
          <mxGeometry x="580" y="562" width="1" height="3" as="geometry" />
        </mxCell>
        <mxCell id="z_o5YdLHFXMN_9M8HcGV-121" value="" style="line;strokeWidth=1;direction=south;html=1;fillColor=none;align=right;strokeColor=#FFFFFF;" parent="1" vertex="1">
          <mxGeometry x="590" y="562" width="1" height="3" as="geometry" />
        </mxCell>
        <mxCell id="z_o5YdLHFXMN_9M8HcGV-122" value="" style="line;strokeWidth=1;direction=south;html=1;fillColor=none;align=right;strokeColor=#FFFFFF;" parent="1" vertex="1">
          <mxGeometry x="600" y="562" width="1" height="3" as="geometry" />
        </mxCell>
        <mxCell id="z_o5YdLHFXMN_9M8HcGV-123" value="" style="line;strokeWidth=1;direction=south;html=1;fillColor=none;align=right;strokeColor=#FFFFFF;" parent="1" vertex="1">
          <mxGeometry x="610" y="562" width="1" height="3" as="geometry" />
        </mxCell>
        <mxCell id="z_o5YdLHFXMN_9M8HcGV-124" value="" style="line;strokeWidth=1;direction=south;html=1;fillColor=none;align=right;strokeColor=#FFFFFF;" parent="1" vertex="1">
          <mxGeometry x="620" y="562" width="1" height="3" as="geometry" />
        </mxCell>
        <mxCell id="z_o5YdLHFXMN_9M8HcGV-125" value="" style="line;strokeWidth=1;direction=south;html=1;fillColor=none;align=right;strokeColor=#FFFFFF;" parent="1" vertex="1">
          <mxGeometry x="630" y="562" width="1" height="3" as="geometry" />
        </mxCell>
        <mxCell id="z_o5YdLHFXMN_9M8HcGV-126" value="" style="line;strokeWidth=1;direction=south;html=1;fillColor=none;align=right;strokeColor=#FFFFFF;" parent="1" vertex="1">
          <mxGeometry x="640" y="562" width="1" height="3" as="geometry" />
        </mxCell>
        <mxCell id="z_o5YdLHFXMN_9M8HcGV-127" value="" style="line;strokeWidth=1;direction=south;html=1;fillColor=none;align=right;strokeColor=#FFFFFF;" parent="1" vertex="1">
          <mxGeometry x="650" y="562" width="1" height="3" as="geometry" />
        </mxCell>
        <mxCell id="z_o5YdLHFXMN_9M8HcGV-128" value="" style="line;strokeWidth=1;direction=south;html=1;fillColor=none;align=right;strokeColor=#FFFFFF;" parent="1" vertex="1">
          <mxGeometry x="660" y="550" width="1" height="15" as="geometry" />
        </mxCell>
        <mxCell id="z_o5YdLHFXMN_9M8HcGV-129" value="" style="rounded=0;whiteSpace=wrap;html=1;fillColor=#000000;strokeColor=none;" parent="1" vertex="1">
          <mxGeometry x="40" y="360" width="320" height="240" as="geometry" />
        </mxCell>
        <mxCell id="z_o5YdLHFXMN_9M8HcGV-131" value="Winter" style="text;html=1;strokeColor=none;fillColor=none;align=center;verticalAlign=middle;whiteSpace=wrap;rounded=0;fontColor=#FFFFFF;" parent="1" vertex="1">
          <mxGeometry x="300" y="580" width="60" height="20" as="geometry" />
        </mxCell>
        <mxCell id="z_o5YdLHFXMN_9M8HcGV-133" value="Back" style="rounded=0;whiteSpace=wrap;html=1;fontColor=#FFFFFF;strokeWidth=1;strokeColor=#FFFFFF;fillColor=none;" parent="1" vertex="1">
          <mxGeometry x="110" y="570" width="60" height="30" as="geometry" />
        </mxCell>
        <mxCell id="z_o5YdLHFXMN_9M8HcGV-134" value="Add" style="rounded=0;whiteSpace=wrap;html=1;fontColor=#FFFFFF;strokeWidth=1;strokeColor=#FFFFFF;fillColor=none;" parent="1" vertex="1">
          <mxGeometry x="230" y="570" width="60" height="30" as="geometry" />
        </mxCell>
        <mxCell id="z_o5YdLHFXMN_9M8HcGV-135" value="Mon" style="rounded=0;whiteSpace=wrap;html=1;fontColor=#FFFFFF;strokeWidth=1;strokeColor=#FFFFFF;fillColor=#C4B702;" parent="1" vertex="1">
          <mxGeometry x="100" y="360" width="30" height="30" as="geometry" />
        </mxCell>
        <mxCell id="z_o5YdLHFXMN_9M8HcGV-136" value="Tue" style="rounded=0;whiteSpace=wrap;html=1;fontColor=#FFFFFF;strokeWidth=1;strokeColor=#FFFFFF;fillColor=none;" parent="1" vertex="1">
          <mxGeometry x="130" y="360" width="30" height="30" as="geometry" />
        </mxCell>
        <mxCell id="z_o5YdLHFXMN_9M8HcGV-137" value="Thu" style="rounded=0;whiteSpace=wrap;html=1;fontColor=#FFFFFF;strokeWidth=1;strokeColor=#FFFFFF;fillColor=none;" parent="1" vertex="1">
          <mxGeometry x="190" y="360" width="30" height="30" as="geometry" />
        </mxCell>
        <mxCell id="z_o5YdLHFXMN_9M8HcGV-138" value="Wed" style="rounded=0;whiteSpace=wrap;html=1;fontColor=#FFFFFF;strokeWidth=1;strokeColor=#FFFFFF;fillColor=none;" parent="1" vertex="1">
          <mxGeometry x="160" y="360" width="30" height="30" as="geometry" />
        </mxCell>
        <mxCell id="z_o5YdLHFXMN_9M8HcGV-139" value="Sat" style="rounded=0;whiteSpace=wrap;html=1;fontColor=#FFFFFF;strokeWidth=1;strokeColor=#FFFFFF;fillColor=none;" parent="1" vertex="1">
          <mxGeometry x="250" y="360" width="30" height="30" as="geometry" />
        </mxCell>
        <mxCell id="z_o5YdLHFXMN_9M8HcGV-140" value="Fri" style="rounded=0;whiteSpace=wrap;html=1;fontColor=#FFFFFF;strokeWidth=1;strokeColor=#FFFFFF;fillColor=none;" parent="1" vertex="1">
          <mxGeometry x="220" y="360" width="30" height="30" as="geometry" />
        </mxCell>
        <mxCell id="z_o5YdLHFXMN_9M8HcGV-141" value="Sun" style="rounded=0;whiteSpace=wrap;html=1;fontColor=#FFFFFF;strokeWidth=1;strokeColor=#FFFFFF;fillColor=none;" parent="1" vertex="1">
          <mxGeometry x="280" y="360" width="30" height="30" as="geometry" />
        </mxCell>
        <mxCell id="z_o5YdLHFXMN_9M8HcGV-142" value="00:00" style="text;html=1;strokeColor=none;fillColor=none;align=center;verticalAlign=middle;whiteSpace=wrap;rounded=0;fontColor=#FFFFFF;" parent="1" vertex="1">
          <mxGeometry x="60" y="400" width="30" height="20" as="geometry" />
        </mxCell>
        <mxCell id="z_o5YdLHFXMN_9M8HcGV-143" value="Copy" style="rounded=0;whiteSpace=wrap;html=1;fontColor=#FFFFFF;strokeWidth=1;strokeColor=#FFFFFF;fillColor=none;" parent="1" vertex="1">
          <mxGeometry x="310" y="415" width="50" height="30" as="geometry" />
        </mxCell>
        <mxCell id="z_o5YdLHFXMN_9M8HcGV-145" value="16" style="rounded=0;whiteSpace=wrap;html=1;fillColor=#6666FF;strokeColor=#FFFFFF;fontColor=#FFFFFF;" parent="1" vertex="1">
          <mxGeometry x="60" y="420" width="30" height="20" as="geometry" />
        </mxCell>
        <mxCell id="z_o5YdLHFXMN_9M8HcGV-146" value="07:00" style="text;html=1;strokeColor=none;fillColor=none;align=center;verticalAlign=middle;whiteSpace=wrap;rounded=0;fontColor=#FFFFFF;" parent="1" vertex="1">
          <mxGeometry x="100" y="400" width="30" height="20" as="geometry" />
        </mxCell>
        <mxCell id="z_o5YdLHFXMN_9M8HcGV-147" value="20" style="rounded=0;whiteSpace=wrap;html=1;fillColor=#FF6666;strokeColor=#FFFFFF;fontColor=#FFFFFF;" parent="1" vertex="1">
          <mxGeometry x="100" y="420" width="30" height="20" as="geometry" />
        </mxCell>
        <mxCell id="z_o5YdLHFXMN_9M8HcGV-148" value="08:30" style="text;html=1;strokeColor=none;fillColor=none;align=center;verticalAlign=middle;whiteSpace=wrap;rounded=0;fontColor=#FFFFFF;" parent="1" vertex="1">
          <mxGeometry x="140" y="400" width="30" height="20" as="geometry" />
        </mxCell>
        <mxCell id="z_o5YdLHFXMN_9M8HcGV-149" value="16" style="rounded=0;whiteSpace=wrap;html=1;fillColor=#6666FF;strokeColor=#FFFFFF;fontColor=#FFFFFF;" parent="1" vertex="1">
          <mxGeometry x="140" y="420" width="30" height="20" as="geometry" />
        </mxCell>
        <mxCell id="z_o5YdLHFXMN_9M8HcGV-150" value="17:00" style="text;html=1;strokeColor=none;fillColor=none;align=center;verticalAlign=middle;whiteSpace=wrap;rounded=0;fontColor=#FFFFFF;" parent="1" vertex="1">
          <mxGeometry x="180" y="400" width="30" height="20" as="geometry" />
        </mxCell>
        <mxCell id="z_o5YdLHFXMN_9M8HcGV-151" value="20" style="rounded=0;whiteSpace=wrap;html=1;fillColor=#FF6666;strokeColor=#FFFFFF;fontColor=#FFFFFF;" parent="1" vertex="1">
          <mxGeometry x="180" y="420" width="30" height="20" as="geometry" />
        </mxCell>
        <mxCell id="z_o5YdLHFXMN_9M8HcGV-152" value="21:30" style="text;html=1;strokeColor=none;fillColor=none;align=center;verticalAlign=middle;whiteSpace=wrap;rounded=0;fontColor=#FFFFFF;" parent="1" vertex="1">
          <mxGeometry x="220" y="400" width="30" height="20" as="geometry" />
        </mxCell>
        <mxCell id="z_o5YdLHFXMN_9M8HcGV-156" value="16" style="rounded=0;whiteSpace=wrap;html=1;fillColor=#6666FF;strokeColor=#FFFFFF;fontColor=#FFFFFF;" parent="1" vertex="1">
          <mxGeometry x="220" y="420" width="30" height="20" as="geometry" />
        </mxCell>
        <mxCell id="z_o5YdLHFXMN_9M8HcGV-157" value="Paste" style="rounded=0;whiteSpace=wrap;html=1;fontColor=#808080;strokeWidth=1;strokeColor=#808080;fillColor=none;" parent="1" vertex="1">
          <mxGeometry x="310" y="460" width="50" height="30" as="geometry" />
        </mxCell>
        <mxCell id="z_o5YdLHFXMN_9M8HcGV-168" value="" style="rounded=0;whiteSpace=wrap;html=1;fillColor=#6666FF;strokeColor=none;fontColor=#FFFFFF;" parent="1" vertex="1">
          <mxGeometry x="50" y="556" width="65" height="6" as="geometry" />
        </mxCell>
        <mxCell id="z_o5YdLHFXMN_9M8HcGV-169" value="" style="rounded=0;whiteSpace=wrap;html=1;fillColor=#FF6666;strokeColor=none;fontColor=#FFFFFF;" parent="1" vertex="1">
          <mxGeometry x="115" y="551" width="30" height="11" as="geometry" />
        </mxCell>
        <mxCell id="z_o5YdLHFXMN_9M8HcGV-170" value="" style="rounded=0;whiteSpace=wrap;html=1;fillColor=#6666FF;strokeColor=none;fontColor=#FFFFFF;" parent="1" vertex="1">
          <mxGeometry x="285" y="556" width="15" height="6" as="geometry" />
        </mxCell>
        <mxCell id="z_o5YdLHFXMN_9M8HcGV-171" value="" style="rounded=0;whiteSpace=wrap;html=1;fillColor=#6666FF;strokeColor=none;fontColor=#FFFFFF;" parent="1" vertex="1">
          <mxGeometry x="145" y="554" width="80" height="8" as="geometry" />
        </mxCell>
        <mxCell id="z_o5YdLHFXMN_9M8HcGV-172" value="" style="rounded=0;whiteSpace=wrap;html=1;fillColor=#FF6666;strokeColor=none;fontColor=#FFFFFF;" parent="1" vertex="1">
          <mxGeometry x="225" y="550" width="50" height="12" as="geometry" />
        </mxCell>
        <mxCell id="z_o5YdLHFXMN_9M8HcGV-173" value="" style="rounded=0;whiteSpace=wrap;html=1;fillColor=#FF6666;strokeColor=none;fontColor=#FFFFFF;" parent="1" vertex="1">
          <mxGeometry x="275" y="552" width="10" height="10" as="geometry" />
        </mxCell>
        <mxCell id="z_o5YdLHFXMN_9M8HcGV-174" value="" style="line;strokeWidth=1;direction=south;html=1;fillColor=none;align=right;strokeColor=#FFFFFF;" parent="1" vertex="1">
          <mxGeometry x="50" y="562" width="1" height="3" as="geometry" />
        </mxCell>
        <mxCell id="z_o5YdLHFXMN_9M8HcGV-175" value="" style="line;strokeWidth=1;direction=south;html=1;fillColor=none;align=right;strokeColor=#FFFFFF;" parent="1" vertex="1">
          <mxGeometry x="60" y="562" width="1" height="3" as="geometry" />
        </mxCell>
        <mxCell id="z_o5YdLHFXMN_9M8HcGV-176" value="" style="line;strokeWidth=1;direction=south;html=1;fillColor=none;align=right;strokeColor=#FFFFFF;" parent="1" vertex="1">
          <mxGeometry x="70" y="562" width="1" height="3" as="geometry" />
        </mxCell>
        <mxCell id="z_o5YdLHFXMN_9M8HcGV-177" value="" style="line;strokeWidth=1;direction=south;html=1;fillColor=none;align=right;strokeColor=#FFFFFF;" parent="1" vertex="1">
          <mxGeometry x="80" y="562" width="1" height="3" as="geometry" />
        </mxCell>
        <mxCell id="z_o5YdLHFXMN_9M8HcGV-178" value="" style="line;strokeWidth=1;direction=south;html=1;fillColor=none;align=right;strokeColor=#FFFFFF;" parent="1" vertex="1">
          <mxGeometry x="90" y="562" width="1" height="3" as="geometry" />
        </mxCell>
        <mxCell id="z_o5YdLHFXMN_9M8HcGV-179" value="" style="line;strokeWidth=1;direction=south;html=1;fillColor=none;align=right;strokeColor=#FFFFFF;" parent="1" vertex="1">
          <mxGeometry x="100" y="562" width="1" height="3" as="geometry" />
        </mxCell>
        <mxCell id="z_o5YdLHFXMN_9M8HcGV-180" value="" style="line;strokeWidth=1;direction=south;html=1;fillColor=none;align=right;strokeColor=#FFFFFF;" parent="1" vertex="1">
          <mxGeometry x="110" y="562" width="1" height="3" as="geometry" />
        </mxCell>
        <mxCell id="z_o5YdLHFXMN_9M8HcGV-181" value="" style="line;strokeWidth=1;direction=south;html=1;fillColor=none;align=right;strokeColor=#FFFFFF;" parent="1" vertex="1">
          <mxGeometry x="120" y="562" width="1" height="3" as="geometry" />
        </mxCell>
        <mxCell id="z_o5YdLHFXMN_9M8HcGV-182" value="" style="line;strokeWidth=1;direction=south;html=1;fillColor=none;align=right;strokeColor=#FFFFFF;" parent="1" vertex="1">
          <mxGeometry x="130" y="562" width="1" height="3" as="geometry" />
        </mxCell>
        <mxCell id="z_o5YdLHFXMN_9M8HcGV-183" value="" style="line;strokeWidth=1;direction=south;html=1;fillColor=none;align=right;strokeColor=#FFFFFF;" parent="1" vertex="1">
          <mxGeometry x="140" y="562" width="1" height="3" as="geometry" />
        </mxCell>
        <mxCell id="z_o5YdLHFXMN_9M8HcGV-184" value="" style="line;strokeWidth=1;direction=south;html=1;fillColor=none;align=right;strokeColor=#FFFFFF;" parent="1" vertex="1">
          <mxGeometry x="150" y="562" width="1" height="3" as="geometry" />
        </mxCell>
        <mxCell id="z_o5YdLHFXMN_9M8HcGV-185" value="" style="line;strokeWidth=1;direction=south;html=1;fillColor=none;align=right;strokeColor=#FFFFFF;" parent="1" vertex="1">
          <mxGeometry x="160" y="562" width="1" height="3" as="geometry" />
        </mxCell>
        <mxCell id="z_o5YdLHFXMN_9M8HcGV-186" value="" style="line;strokeWidth=1;direction=south;html=1;fillColor=none;align=right;strokeColor=#FFFFFF;" parent="1" vertex="1">
          <mxGeometry x="170" y="562" width="1" height="3" as="geometry" />
        </mxCell>
        <mxCell id="z_o5YdLHFXMN_9M8HcGV-187" value="" style="line;strokeWidth=1;direction=south;html=1;fillColor=none;align=right;strokeColor=#FFFFFF;" parent="1" vertex="1">
          <mxGeometry x="180" y="562" width="1" height="3" as="geometry" />
        </mxCell>
        <mxCell id="z_o5YdLHFXMN_9M8HcGV-188" value="" style="line;strokeWidth=1;direction=south;html=1;fillColor=none;align=right;strokeColor=#FFFFFF;" parent="1" vertex="1">
          <mxGeometry x="190" y="562" width="1" height="3" as="geometry" />
        </mxCell>
        <mxCell id="z_o5YdLHFXMN_9M8HcGV-189" value="" style="line;strokeWidth=1;direction=south;html=1;fillColor=none;align=right;strokeColor=#FFFFFF;" parent="1" vertex="1">
          <mxGeometry x="200" y="562" width="1" height="3" as="geometry" />
        </mxCell>
        <mxCell id="z_o5YdLHFXMN_9M8HcGV-190" value="" style="line;strokeWidth=1;direction=south;html=1;fillColor=none;align=right;strokeColor=#FFFFFF;" parent="1" vertex="1">
          <mxGeometry x="210" y="562" width="1" height="3" as="geometry" />
        </mxCell>
        <mxCell id="z_o5YdLHFXMN_9M8HcGV-191" value="" style="line;strokeWidth=1;direction=south;html=1;fillColor=none;align=right;strokeColor=#FFFFFF;" parent="1" vertex="1">
          <mxGeometry x="220" y="562" width="1" height="3" as="geometry" />
        </mxCell>
        <mxCell id="z_o5YdLHFXMN_9M8HcGV-192" value="" style="line;strokeWidth=1;direction=south;html=1;fillColor=none;align=right;strokeColor=#FFFFFF;" parent="1" vertex="1">
          <mxGeometry x="230" y="562" width="1" height="3" as="geometry" />
        </mxCell>
        <mxCell id="z_o5YdLHFXMN_9M8HcGV-193" value="" style="line;strokeWidth=1;direction=south;html=1;fillColor=none;align=right;strokeColor=#FFFFFF;" parent="1" vertex="1">
          <mxGeometry x="240" y="562" width="1" height="3" as="geometry" />
        </mxCell>
        <mxCell id="z_o5YdLHFXMN_9M8HcGV-194" value="" style="line;strokeWidth=1;direction=south;html=1;fillColor=none;align=right;strokeColor=#FFFFFF;" parent="1" vertex="1">
          <mxGeometry x="250" y="562" width="1" height="3" as="geometry" />
        </mxCell>
        <mxCell id="z_o5YdLHFXMN_9M8HcGV-195" value="" style="line;strokeWidth=1;direction=south;html=1;fillColor=none;align=right;strokeColor=#FFFFFF;" parent="1" vertex="1">
          <mxGeometry x="260" y="562" width="1" height="3" as="geometry" />
        </mxCell>
        <mxCell id="z_o5YdLHFXMN_9M8HcGV-196" value="" style="line;strokeWidth=1;direction=south;html=1;fillColor=none;align=right;strokeColor=#FFFFFF;" parent="1" vertex="1">
          <mxGeometry x="270" y="562" width="1" height="3" as="geometry" />
        </mxCell>
        <mxCell id="z_o5YdLHFXMN_9M8HcGV-197" value="" style="line;strokeWidth=1;direction=south;html=1;fillColor=none;align=right;strokeColor=#FFFFFF;" parent="1" vertex="1">
          <mxGeometry x="280" y="562" width="1" height="3" as="geometry" />
        </mxCell>
        <mxCell id="z_o5YdLHFXMN_9M8HcGV-198" value="" style="line;strokeWidth=1;direction=south;html=1;fillColor=none;align=right;strokeColor=#FFFFFF;" parent="1" vertex="1">
          <mxGeometry x="290" y="562" width="1" height="3" as="geometry" />
        </mxCell>
        <mxCell id="z_o5YdLHFXMN_9M8HcGV-199" value="" style="line;strokeWidth=1;direction=south;html=1;fillColor=none;align=right;strokeColor=#FFFFFF;" parent="1" vertex="1">
          <mxGeometry x="300" y="550" width="1" height="15" as="geometry" />
        </mxCell>
        <mxCell id="z_o5YdLHFXMN_9M8HcGV-200" value="&lt;font size=&quot;1&quot;&gt;&lt;b style=&quot;font-size: 38px&quot;&gt;17.3&lt;/b&gt;&lt;/font&gt;&lt;br&gt;&lt;font style=&quot;font-size: 20px&quot;&gt;°C&lt;/font&gt;" style="ellipse;whiteSpace=wrap;html=1;aspect=fixed;fontColor=#FFFFFF;fillColor=#000000;strokeWidth=4;strokeColor=#0033FF;spacing=2;spacingBottom=0;" parent="1" vertex="1">
          <mxGeometry x="515.5" y="115" width="90" height="90" as="geometry" />
        </mxCell>
        <mxCell id="z_o5YdLHFXMN_9M8HcGV-205" value="18.6 °C" style="text;html=1;strokeColor=none;fillColor=none;align=left;verticalAlign=middle;whiteSpace=wrap;rounded=0;fontColor=#FFFFFF;" parent="1" vertex="1">
          <mxGeometry x="415" y="1220" width="51" height="20" as="geometry" />
        </mxCell>
        <mxCell id="z_o5YdLHFXMN_9M8HcGV-206" value="" style="rounded=0;whiteSpace=wrap;html=1;fillColor=#000000;strokeColor=none;" parent="1" vertex="1">
          <mxGeometry x="41" y="1320" width="320" height="240" as="geometry" />
        </mxCell>
        <mxCell id="z_o5YdLHFXMN_9M8HcGV-207" value="&lt;font style=&quot;font-size: 55px&quot;&gt;&lt;b&gt;26.3&lt;/b&gt;&lt;/font&gt;&lt;br&gt;°C" style="ellipse;whiteSpace=wrap;html=1;aspect=fixed;fontColor=#FFFFFF;fillColor=#000000;strokeWidth=20;strokeColor=#808080;" parent="1" vertex="1">
          <mxGeometry x="131" y="1370" width="140" height="140" as="geometry" />
        </mxCell>
        <mxCell id="z_o5YdLHFXMN_9M8HcGV-209" value="Summer" style="text;html=1;strokeColor=none;fillColor=none;align=center;verticalAlign=middle;whiteSpace=wrap;rounded=0;fontColor=#FFFFFF;" parent="1" vertex="1">
          <mxGeometry x="301" y="1540" width="60" height="20" as="geometry" />
        </mxCell>
        <mxCell id="z_o5YdLHFXMN_9M8HcGV-211" value="" style="rounded=0;whiteSpace=wrap;html=1;fillColor=#000000;strokeColor=none;" parent="1" vertex="1">
          <mxGeometry x="401" y="1320" width="320" height="240" as="geometry" />
        </mxCell>
        <mxCell id="z_o5YdLHFXMN_9M8HcGV-213" value="Summer" style="text;html=1;strokeColor=none;fillColor=none;align=center;verticalAlign=middle;whiteSpace=wrap;rounded=0;fontColor=#FFFFFF;" parent="1" vertex="1">
          <mxGeometry x="661" y="1540" width="60" height="20" as="geometry" />
        </mxCell>
        <mxCell id="z_o5YdLHFXMN_9M8HcGV-216" value="Manual" style="rounded=0;whiteSpace=wrap;html=1;fontColor=#FFFFFF;strokeWidth=1;strokeColor=#FFFFFF;fillColor=none;fontSize=20;" parent="1" vertex="1">
          <mxGeometry x="431" y="1420" width="80" height="40" as="geometry" />
        </mxCell>
        <mxCell id="z_o5YdLHFXMN_9M8HcGV-217" value="Winter" style="rounded=0;whiteSpace=wrap;html=1;fontColor=#FFFFFF;strokeWidth=1;strokeColor=#FFFFFF;fillColor=none;fontSize=20;" parent="1" vertex="1">
          <mxGeometry x="611" y="1420" width="80" height="40" as="geometry" />
        </mxCell>
        <mxCell id="z_o5YdLHFXMN_9M8HcGV-218" value="Back" style="rounded=0;whiteSpace=wrap;html=1;fontColor=#FFFFFF;strokeWidth=1;strokeColor=#FFFFFF;fillColor=none;fontSize=20;" parent="1" vertex="1">
          <mxGeometry x="521" y="1490" width="80" height="40" as="geometry" />
        </mxCell>
        <mxCell id="z_o5YdLHFXMN_9M8HcGV-219" value="Summer mode - Main Screen" style="text;html=1;strokeColor=none;fillColor=none;align=center;verticalAlign=middle;whiteSpace=wrap;rounded=0;" parent="1" vertex="1">
          <mxGeometry x="41" y="1290" width="320" height="30" as="geometry" />
        </mxCell>
        <mxCell id="z_o5YdLHFXMN_9M8HcGV-220" value="Summer mode -&amp;nbsp;Mode select" style="text;html=1;strokeColor=none;fillColor=none;align=center;verticalAlign=middle;whiteSpace=wrap;rounded=0;" parent="1" vertex="1">
          <mxGeometry x="401" y="1290" width="320" height="30" as="geometry" />
        </mxCell>
        <mxCell id="z_o5YdLHFXMN_9M8HcGV-223" value="&lt;font size=&quot;1&quot;&gt;&lt;b style=&quot;font-size: 38px&quot;&gt;26.3&lt;/b&gt;&lt;/font&gt;&lt;br&gt;&lt;font style=&quot;font-size: 20px&quot;&gt;°C&lt;/font&gt;" style="ellipse;whiteSpace=wrap;html=1;aspect=fixed;fontColor=#FFFFFF;fillColor=#000000;strokeWidth=4;strokeColor=#808080;spacing=2;spacingBottom=0;" parent="1" vertex="1">
          <mxGeometry x="516.5" y="1395" width="90" height="90" as="geometry" />
        </mxCell>
        <mxCell id="z_o5YdLHFXMN_9M8HcGV-224" value="" style="rounded=0;whiteSpace=wrap;html=1;fillColor=#000000;strokeColor=none;" parent="1" vertex="1">
          <mxGeometry x="40.5" y="1640" width="320" height="240" as="geometry" />
        </mxCell>
        <mxCell id="z_o5YdLHFXMN_9M8HcGV-227" value="Manual" style="text;html=1;strokeColor=none;fillColor=none;align=center;verticalAlign=middle;whiteSpace=wrap;rounded=0;fontColor=#FFFFFF;" parent="1" vertex="1">
          <mxGeometry x="300.5" y="1860" width="60" height="20" as="geometry" />
        </mxCell>
        <mxCell id="z_o5YdLHFXMN_9M8HcGV-228" value="All modes - Always Present" style="text;html=1;strokeColor=none;fillColor=none;align=center;verticalAlign=middle;whiteSpace=wrap;rounded=0;" parent="1" vertex="1">
          <mxGeometry x="40.5" y="1610" width="320" height="30" as="geometry" />
        </mxCell>
        <mxCell id="z_o5YdLHFXMN_9M8HcGV-231" value="" style="rounded=0;whiteSpace=wrap;html=1;fillColor=#000000;strokeColor=none;" parent="1" vertex="1">
          <mxGeometry x="405" y="1640" width="320" height="240" as="geometry" />
        </mxCell>
        <mxCell id="z_o5YdLHFXMN_9M8HcGV-233" value="Manual" style="text;html=1;strokeColor=none;fillColor=none;align=center;verticalAlign=middle;whiteSpace=wrap;rounded=0;fontColor=#FFFFFF;" parent="1" vertex="1">
          <mxGeometry x="665" y="1860" width="60" height="20" as="geometry" />
        </mxCell>
        <mxCell id="z_o5YdLHFXMN_9M8HcGV-234" value="All modes - Warnings" style="text;html=1;strokeColor=none;fillColor=none;align=center;verticalAlign=middle;whiteSpace=wrap;rounded=0;" parent="1" vertex="1">
          <mxGeometry x="405" y="1610" width="320" height="30" as="geometry" />
        </mxCell>
        <mxCell id="z_o5YdLHFXMN_9M8HcGV-237" value="" style="shape=image;verticalLabelPosition=bottom;labelBackgroundColor=#ffffff;verticalAlign=top;aspect=fixed;imageAspect=0;image=data:image/png,iVBORw0KGgoAAAANSUhEUgAAAB4AAAAeCAYAAAA7MK6iAAABg2lDQ1BJQ0MgcHJvZmlsZQAAKJF9kT1Iw0AcxV9TpVJaBO0g4pChOlkQFXHUKhShQqgVWnUwufQLmhiSFBdHwbXg4Mdi1cHFWVcHV0EQ/ABxc3NSdJES/5cUWsR4cNyPd/ced+8AoVFlmtU1Bmi6bWZSSTGXXxFDrwgjij4ACZlZxqwkpeE7vu4R4Otdgmf5n/tzRNWCxYCASDzDDNMmXiee2rQNzvvEMVaWVeJz4lGTLkj8yHXF4zfOJZcFnhkzs5k54hixWOpgpYNZ2dSIJ4njqqZTvpDzWOW8xVmr1ljrnvyFkYK+vMR1mkNIYQGLkCBCQQ0VVGEjQatOioUM7Sd9/IOuXyKXQq4KGDnmsQENsusH/4Pf3VrFiXEvKZIEul8c52MYCO0CzbrjfB87TvMECD4DV3rbv9EApj9Jr7e1+BHQuw1cXLc1ZQ+43AEGngzZlF0pSFMoFoH3M/qmPNB/C4RXvd5a+zh9ALLUVfoGODgERkqUvebz7p7O3v490+rvB0OKcpQIXSxQAAAABmJLR0QA/wD/AP+gvaeTAAAACXBIWXMAAC4jAAAuIwF4pT92AAAAB3RJTUUH5QoNFxsmUNUbfwAAABl0RVh0Q29tbWVudABDcmVhdGVkIHdpdGggR0lNUFeBDhcAAAC/SURBVEjH7ZbRCYAwDERNhnAoB3Yol9AvoZTW3OVa/bEgCJq8S3JEl+U/Lx27b9btPHsvHbvZJ+AZIqAkLVGqADq4FpEVkFatCghnHCUs4xg4Za5e4gzcRhmLhdvIuTJwU42VhafNhcAlcHauEdxUY/XgElit7gnuKLhVTf0M/dCEM2bmylbtUXvRncxW7WVgeSGLg2ktPONaQBbSE+mMqVC3IyJ91KqUWt0y06yfPW9Vo5hGNtdr4LKdM1r7nwtUcL9o+gyz3QAAAABJRU5ErkJggg==;" parent="1" vertex="1">
          <mxGeometry x="705" y="1840" width="20" height="20" as="geometry" />
        </mxCell>
        <mxCell id="z_o5YdLHFXMN_9M8HcGV-238" value="" style="shape=image;verticalLabelPosition=bottom;labelBackgroundColor=#ffffff;verticalAlign=top;aspect=fixed;imageAspect=0;image=data:image/png,iVBORw0KGgoAAAANSUhEUgAAAB4AAAAeCAYAAAA7MK6iAAABg2lDQ1BJQ0MgcHJvZmlsZQAAKJF9kT1Iw0AcxV9TpVJaBO0g4pChOlkQFXHUKhShQqgVWnUwufQLmhiSFBdHwbXg4Mdi1cHFWVcHV0EQ/ABxc3NSdJES/5cUWsR4cNyPd/ced+8AoVFlmtU1Bmi6bWZSSTGXXxFDrwgjij4ACZlZxqwkpeE7vu4R4Otdgmf5n/tzRNWCxYCASDzDDNMmXiee2rQNzvvEMVaWVeJz4lGTLkj8yHXF4zfOJZcFnhkzs5k54hixWOpgpYNZ2dSIJ4njqqZTvpDzWOW8xVmr1ljrnvyFkYK+vMR1mkNIYQGLkCBCQQ0VVGEjQatOioUM7Sd9/IOuXyKXQq4KGDnmsQENsusH/4Pf3VrFiXEvKZIEul8c52MYCO0CzbrjfB87TvMECD4DV3rbv9EApj9Jr7e1+BHQuw1cXLc1ZQ+43AEGngzZlF0pSFMoFoH3M/qmPNB/C4RXvd5a+zh9ALLUVfoGODgERkqUvebz7p7O3v490+rvB0OKcpQIXSxQAAAABmJLR0QA/wD/AP+gvaeTAAAACXBIWXMAAC4jAAAuIwF4pT92AAAAB3RJTUUH5QoNFxsvKQmj2wAAABl0RVh0Q29tbWVudABDcmVhdGVkIHdpdGggR0lNUFeBDhcAAACCSURBVEjH7ZYxDsAgCEU/TU/k6vlZvRKdujTGoKLUBCYnnvC/IHBccBJwkv3Q2nkbdAJ+eSkV4AD/EDw5QKLVAQ6wE7j1bpft5W/i2gDpgN8mFwCAXMi+1ZxElTgX0lbtpvEhrm61e4nGWu20Xhhy9Zt40M22y3/gU0Amw2RL1UbxACN5QX6Wo0pAAAAAAElFTkSuQmCC;" parent="1" vertex="1">
          <mxGeometry x="405" y="1860" width="20" height="20" as="geometry" />
        </mxCell>
        <mxCell id="z_o5YdLHFXMN_9M8HcGV-240" value="" style="shape=image;verticalLabelPosition=bottom;labelBackgroundColor=#ffffff;verticalAlign=top;aspect=fixed;imageAspect=0;image=data:image/png,iVBORw0KGgoAAAANSUhEUgAAAB4AAAAeCAYAAAA7MK6iAAABg2lDQ1BJQ0MgcHJvZmlsZQAAKJF9kT1Iw0AcxV9TpVJaBO0g4pChOlkQFXHUKhShQqgVWnUwufQLmhiSFBdHwbXg4Mdi1cHFWVcHV0EQ/ABxc3NSdJES/5cUWsR4cNyPd/ced+8AoVFlmtU1Bmi6bWZSSTGXXxFDrwgjij4ACZlZxqwkpeE7vu4R4Otdgmf5n/tzRNWCxYCASDzDDNMmXiee2rQNzvvEMVaWVeJz4lGTLkj8yHXF4zfOJZcFnhkzs5k54hixWOpgpYNZ2dSIJ4njqqZTvpDzWOW8xVmr1ljrnvyFkYK+vMR1mkNIYQGLkCBCQQ0VVGEjQatOioUM7Sd9/IOuXyKXQq4KGDnmsQENsusH/4Pf3VrFiXEvKZIEul8c52MYCO0CzbrjfB87TvMECD4DV3rbv9EApj9Jr7e1+BHQuw1cXLc1ZQ+43AEGngzZlF0pSFMoFoH3M/qmPNB/C4RXvd5a+zh9ALLUVfoGODgERkqUvebz7p7O3v490+rvB0OKcpQIXSxQAAAABmJLR0QA/wD/AP+gvaeTAAAACXBIWXMAAC4jAAAuIwF4pT92AAAAB3RJTUUH5QoNFxwFvfP8ygAAABl0RVh0Q29tbWVudABDcmVhdGVkIHdpdGggR0lNUFeBDhcAAACUSURBVEjH1ZdBEoAwCAOR8Xk+1//VKyeBJohwFbKm05Eo0lRHpnndsl7FrpxeCOhBM31SJQS9gDcYPQEqNCMahtMFI71UMadfpbtQB9kZHeV2d8bOtTmeCUa+y9pxPyCwXYE7cMgxAoePGnUu6AKP7GD7/KRlKCT2UGLLmO1U6ZqeQkq0GHAoaX4eb6sD/b9/YSrqAccOkMluodH6AAAAAElFTkSuQmCC;" parent="1" vertex="1">
          <mxGeometry x="405" y="1640" width="20" height="20" as="geometry" />
        </mxCell>
        <mxCell id="z_o5YdLHFXMN_9M8HcGV-241" value="" style="shape=image;verticalLabelPosition=bottom;labelBackgroundColor=#ffffff;verticalAlign=top;aspect=fixed;imageAspect=0;image=data:image/png,iVBORw0KGgoAAAANSUhEUgAAAB4AAAAeCAYAAAA7MK6iAAABg2lDQ1BJQ0MgcHJvZmlsZQAAKJF9kT1Iw0AcxV9TpVJaBO0g4pChOlkQFXHUKhShQqgVWnUwufQLmhiSFBdHwbXg4Mdi1cHFWVcHV0EQ/ABxc3NSdJES/5cUWsR4cNyPd/ced+8AoVFlmtU1Bmi6bWZSSTGXXxFDrwgjij4ACZlZxqwkpeE7vu4R4Otdgmf5n/tzRNWCxYCASDzDDNMmXiee2rQNzvvEMVaWVeJz4lGTLkj8yHXF4zfOJZcFnhkzs5k54hixWOpgpYNZ2dSIJ4njqqZTvpDzWOW8xVmr1ljrnvyFkYK+vMR1mkNIYQGLkCBCQQ0VVGEjQatOioUM7Sd9/IOuXyKXQq4KGDnmsQENsusH/4Pf3VrFiXEvKZIEul8c52MYCO0CzbrjfB87TvMECD4DV3rbv9EApj9Jr7e1+BHQuw1cXLc1ZQ+43AEGngzZlF0pSFMoFoH3M/qmPNB/C4RXvd5a+zh9ALLUVfoGODgERkqUvebz7p7O3v490+rvB0OKcpQIXSxQAAAABmJLR0QA/wD/AP+gvaeTAAAACXBIWXMAAC4jAAAuIwF4pT92AAAAB3RJTUUH5QoNFxwY3vWQEwAAABl0RVh0Q29tbWVudABDcmVhdGVkIHdpdGggR0lNUFeBDhcAAABhSURBVEjH7ZNBCgAgCATVj/T/Z/USuwVFVgdNgp1bJE4uSQQAAAAA4IVWUq2kpzrJeiB7Tzs0L3Z/9pZy6eetPC1qiYj45k4ipbuaP6O+mdb88S+kqxVjb+m8TpY8beI0GtjVKgpK5x+OAAAAAElFTkSuQmCC;" parent="1" vertex="1">
          <mxGeometry x="405" y="1640" width="20" height="20" as="geometry" />
        </mxCell>
        <mxCell id="z_o5YdLHFXMN_9M8HcGV-242" value="" style="shape=image;verticalLabelPosition=bottom;labelBackgroundColor=#ffffff;verticalAlign=top;aspect=fixed;imageAspect=0;image=data:image/png,iVBORw0KGgoAAAANSUhEUgAAAB4AAAAeCAYAAAA7MK6iAAABg2lDQ1BJQ0MgcHJvZmlsZQAAKJF9kT1Iw0AcxV9TpVJaBO0g4pChOlkQFXHUKhShQqgVWnUwufQLmhiSFBdHwbXg4Mdi1cHFWVcHV0EQ/ABxc3NSdJES/5cUWsR4cNyPd/ced+8AoVFlmtU1Bmi6bWZSSTGXXxFDrwgjij4ACZlZxqwkpeE7vu4R4Otdgmf5n/tzRNWCxYCASDzDDNMmXiee2rQNzvvEMVaWVeJz4lGTLkj8yHXF4zfOJZcFnhkzs5k54hixWOpgpYNZ2dSIJ4njqqZTvpDzWOW8xVmr1ljrnvyFkYK+vMR1mkNIYQGLkCBCQQ0VVGEjQatOioUM7Sd9/IOuXyKXQq4KGDnmsQENsusH/4Pf3VrFiXEvKZIEul8c52MYCO0CzbrjfB87TvMECD4DV3rbv9EApj9Jr7e1+BHQuw1cXLc1ZQ+43AEGngzZlF0pSFMoFoH3M/qmPNB/C4RXvd5a+zh9ALLUVfoGODgERkqUvebz7p7O3v490+rvB0OKcpQIXSxQAAAABmJLR0QA/wD/AP+gvaeTAAAACXBIWXMAAC4jAAAuIwF4pT92AAAAB3RJTUUH5QoNFxwY3vWQEwAAABl0RVh0Q29tbWVudABDcmVhdGVkIHdpdGggR0lNUFeBDhcAAABhSURBVEjH7ZNBCgAgCATVj/T/Z/USuwVFVgdNgp1bJE4uSQQAAAAA4IVWUq2kpzrJeiB7Tzs0L3Z/9pZy6eetPC1qiYj45k4ipbuaP6O+mdb88S+kqxVjb+m8TpY8beI0GtjVKgpK5x+OAAAAAElFTkSuQmCC;" parent="1" vertex="1">
          <mxGeometry x="705" y="1840" width="20" height="20" as="geometry" />
        </mxCell>
        <mxCell id="z_o5YdLHFXMN_9M8HcGV-243" value="" style="shape=image;verticalLabelPosition=bottom;labelBackgroundColor=#ffffff;verticalAlign=top;aspect=fixed;imageAspect=0;image=data:image/png,iVBORw0KGgoAAAANSUhEUgAAAB4AAAAeCAYAAAA7MK6iAAABg2lDQ1BJQ0MgcHJvZmlsZQAAKJF9kT1Iw0AcxV9TpVJaBO0g4pChOlkQFXHUKhShQqgVWnUwufQLmhiSFBdHwbXg4Mdi1cHFWVcHV0EQ/ABxc3NSdJES/5cUWsR4cNyPd/ced+8AoVFlmtU1Bmi6bWZSSTGXXxFDrwgjij4ACZlZxqwkpeE7vu4R4Otdgmf5n/tzRNWCxYCASDzDDNMmXiee2rQNzvvEMVaWVeJz4lGTLkj8yHXF4zfOJZcFnhkzs5k54hixWOpgpYNZ2dSIJ4njqqZTvpDzWOW8xVmr1ljrnvyFkYK+vMR1mkNIYQGLkCBCQQ0VVGEjQatOioUM7Sd9/IOuXyKXQq4KGDnmsQENsusH/4Pf3VrFiXEvKZIEul8c52MYCO0CzbrjfB87TvMECD4DV3rbv9EApj9Jr7e1+BHQuw1cXLc1ZQ+43AEGngzZlF0pSFMoFoH3M/qmPNB/C4RXvd5a+zh9ALLUVfoGODgERkqUvebz7p7O3v490+rvB0OKcpQIXSxQAAAABmJLR0QA/wD/AP+gvaeTAAAACXBIWXMAAC4jAAAuIwF4pT92AAAAB3RJTUUH5QoNFxwY3vWQEwAAABl0RVh0Q29tbWVudABDcmVhdGVkIHdpdGggR0lNUFeBDhcAAABhSURBVEjH7ZNBCgAgCATVj/T/Z/USuwVFVgdNgp1bJE4uSQQAAAAA4IVWUq2kpzrJeiB7Tzs0L3Z/9pZy6eetPC1qiYj45k4ipbuaP6O+mdb88S+kqxVjb+m8TpY8beI0GtjVKgpK5x+OAAAAAElFTkSuQmCC;" parent="1" vertex="1">
          <mxGeometry x="405" y="1860" width="20" height="20" as="geometry" />
        </mxCell>
        <mxCell id="z_o5YdLHFXMN_9M8HcGV-245" value="" style="shape=image;verticalLabelPosition=bottom;labelBackgroundColor=#ffffff;verticalAlign=top;aspect=fixed;imageAspect=0;image=data:image/png,iVBORw0KGgoAAAANSUhEUgAAAB4AAAAeCAYAAAA7MK6iAAABhGlDQ1BJQ0MgcHJvZmlsZQAAKJF9kT1Iw0AcxV9TpVJaHCwo4hChOlkQFXHUKhShQqkVWnUwufQLmjQkKS6OgmvBwY/FqoOLs64OroIg+AHi5uak6CIl/i8ptIjx4Lgf7+497t4BQqPCVLNrHFA1y0gn4mI2tyoGXhFEGP0YhiAxU59LpZLwHF/38PH1LsazvM/9OcJK3mSATySeZbphEW8QT29aOud94ggrSQrxOfGYQRckfuS67PIb56LDAs+MGJn0PHGEWCx2sNzBrGSoxFPEUUXVKF/Iuqxw3uKsVmqsdU/+wlBeW1nmOs0hJLCIJaQgQkYNZVRgIUarRoqJNO3HPfyDjj9FLplcZTByLKAKFZLjB/+D392ahckJNykUB7pfbPtjBAjsAs26bX8f23bzBPA/A1da219tADOfpNfbWvQI6N0GLq7bmrwHXO4AA0+6ZEiO5KcpFArA+xl9Uw7ouwWCa25vrX2cPgAZ6ip5AxwcAqNFyl73eHdPZ2//nmn19wM3b3KPzEF1BgAAAAZiS0dEAP8A/wD/oL2nkwAAAAlwSFlzAAAuIwAALiMBeKU/dgAAAAd0SU1FB+UKDRchNfHChNgAAAAZdEVYdENvbW1lbnQAQ3JlYXRlZCB3aXRoIEdJTVBXgQ4XAAAAa0lEQVRIx+2VsQ4AIQxCpbn//2VvuMXcVIXahZc4UwHrGMYYY4yOOb/DEdwALcKcODSCwIUb8/kKrD4fJrreBrQ3y2cNvZ058QKrcwPGzSavPEQ90NDqf45lCwRQW12wQOSt5jIt+iT243gBKuYeFRz5PX8AAAAASUVORK5CYII=;" parent="1" vertex="1">
          <mxGeometry x="695" y="1640" width="30" height="30" as="geometry" />
        </mxCell>
        <mxCell id="z_o5YdLHFXMN_9M8HcGV-246" value="" style="shape=image;verticalLabelPosition=bottom;labelBackgroundColor=#ffffff;verticalAlign=top;aspect=fixed;imageAspect=0;image=data:image/png,iVBORw0KGgoAAAANSUhEUgAAAB4AAAAeCAYAAAA7MK6iAAABhGlDQ1BJQ0MgcHJvZmlsZQAAKJF9kT1Iw0AcxV9TpVJaHCwo4hChOlkQFXHUKhShQqkVWnUwufQLmjQkKS6OgmvBwY/FqoOLs64OroIg+AHi5uak6CIl/i8ptIjx4Lgf7+497t4BQqPCVLNrHFA1y0gn4mI2tyoGXhFEGP0YhiAxU59LpZLwHF/38PH1LsazvM/9OcJK3mSATySeZbphEW8QT29aOud94ggrSQrxOfGYQRckfuS67PIb56LDAs+MGJn0PHGEWCx2sNzBrGSoxFPEUUXVKF/Iuqxw3uKsVmqsdU/+wlBeW1nmOs0hJLCIJaQgQkYNZVRgIUarRoqJNO3HPfyDjj9FLplcZTByLKAKFZLjB/+D392ahckJNykUB7pfbPtjBAjsAs26bX8f23bzBPA/A1da219tADOfpNfbWvQI6N0GLq7bmrwHXO4AA0+6ZEiO5KcpFArA+xl9Uw7ouwWCa25vrX2cPgAZ6ip5AxwcAqNFyl73eHdPZ2//nmn19wM3b3KPzEF1BgAAAAZiS0dEAP8A/wD/oL2nkwAAAAlwSFlzAAAuIwAALiMBeKU/dgAAAAd0SU1FB+UKDRchNfHChNgAAAAZdEVYdENvbW1lbnQAQ3JlYXRlZCB3aXRoIEdJTVBXgQ4XAAAAa0lEQVRIx+2VsQ4AIQxCpbn//2VvuMXcVIXahZc4UwHrGMYYY4yOOb/DEdwALcKcODSCwIUb8/kKrD4fJrreBrQ3y2cNvZ058QKrcwPGzSavPEQ90NDqf45lCwRQW12wQOSt5jIt+iT243gBKuYeFRz5PX8AAAAASUVORK5CYII=;" parent="1" vertex="1">
          <mxGeometry x="690" y="1320" width="30" height="30" as="geometry" />
        </mxCell>
        <mxCell id="z_o5YdLHFXMN_9M8HcGV-247" value="" style="shape=image;verticalLabelPosition=bottom;labelBackgroundColor=#ffffff;verticalAlign=top;aspect=fixed;imageAspect=0;image=data:image/png,iVBORw0KGgoAAAANSUhEUgAAAB4AAAAeCAYAAAA7MK6iAAABhGlDQ1BJQ0MgcHJvZmlsZQAAKJF9kT1Iw0AcxV9TpVJaHCwo4hChOlkQFXHUKhShQqkVWnUwufQLmjQkKS6OgmvBwY/FqoOLs64OroIg+AHi5uak6CIl/i8ptIjx4Lgf7+497t4BQqPCVLNrHFA1y0gn4mI2tyoGXhFEGP0YhiAxU59LpZLwHF/38PH1LsazvM/9OcJK3mSATySeZbphEW8QT29aOud94ggrSQrxOfGYQRckfuS67PIb56LDAs+MGJn0PHGEWCx2sNzBrGSoxFPEUUXVKF/Iuqxw3uKsVmqsdU/+wlBeW1nmOs0hJLCIJaQgQkYNZVRgIUarRoqJNO3HPfyDjj9FLplcZTByLKAKFZLjB/+D392ahckJNykUB7pfbPtjBAjsAs26bX8f23bzBPA/A1da219tADOfpNfbWvQI6N0GLq7bmrwHXO4AA0+6ZEiO5KcpFArA+xl9Uw7ouwWCa25vrX2cPgAZ6ip5AxwcAqNFyl73eHdPZ2//nmn19wM3b3KPzEF1BgAAAAZiS0dEAP8A/wD/oL2nkwAAAAlwSFlzAAAuIwAALiMBeKU/dgAAAAd0SU1FB+UKDRchNfHChNgAAAAZdEVYdENvbW1lbnQAQ3JlYXRlZCB3aXRoIEdJTVBXgQ4XAAAAa0lEQVRIx+2VsQ4AIQxCpbn//2VvuMXcVIXahZc4UwHrGMYYY4yOOb/DEdwALcKcODSCwIUb8/kKrD4fJrreBrQ3y2cNvZ058QKrcwPGzSavPEQ90NDqf45lCwRQW12wQOSt5jIt+iT243gBKuYeFRz5PX8AAAAASUVORK5CYII=;" parent="1" vertex="1">
          <mxGeometry x="330" y="1320" width="30" height="30" as="geometry" />
        </mxCell>
        <mxCell id="z_o5YdLHFXMN_9M8HcGV-248" value="" style="shape=image;verticalLabelPosition=bottom;labelBackgroundColor=#ffffff;verticalAlign=top;aspect=fixed;imageAspect=0;image=data:image/png,iVBORw0KGgoAAAANSUhEUgAAAB4AAAAeCAYAAAA7MK6iAAABhGlDQ1BJQ0MgcHJvZmlsZQAAKJF9kT1Iw0AcxV9TpVJaHCwo4hChOlkQFXHUKhShQqkVWnUwufQLmjQkKS6OgmvBwY/FqoOLs64OroIg+AHi5uak6CIl/i8ptIjx4Lgf7+497t4BQqPCVLNrHFA1y0gn4mI2tyoGXhFEGP0YhiAxU59LpZLwHF/38PH1LsazvM/9OcJK3mSATySeZbphEW8QT29aOud94ggrSQrxOfGYQRckfuS67PIb56LDAs+MGJn0PHGEWCx2sNzBrGSoxFPEUUXVKF/Iuqxw3uKsVmqsdU/+wlBeW1nmOs0hJLCIJaQgQkYNZVRgIUarRoqJNO3HPfyDjj9FLplcZTByLKAKFZLjB/+D392ahckJNykUB7pfbPtjBAjsAs26bX8f23bzBPA/A1da219tADOfpNfbWvQI6N0GLq7bmrwHXO4AA0+6ZEiO5KcpFArA+xl9Uw7ouwWCa25vrX2cPgAZ6ip5AxwcAqNFyl73eHdPZ2//nmn19wM3b3KPzEF1BgAAAAZiS0dEAP8A/wD/oL2nkwAAAAlwSFlzAAAuIwAALiMBeKU/dgAAAAd0SU1FB+UKDRchNfHChNgAAAAZdEVYdENvbW1lbnQAQ3JlYXRlZCB3aXRoIEdJTVBXgQ4XAAAAa0lEQVRIx+2VsQ4AIQxCpbn//2VvuMXcVIXahZc4UwHrGMYYY4yOOb/DEdwALcKcODSCwIUb8/kKrD4fJrreBrQ3y2cNvZ058QKrcwPGzSavPEQ90NDqf45lCwRQW12wQOSt5jIt+iT243gBKuYeFRz5PX8AAAAASUVORK5CYII=;" parent="1" vertex="1">
          <mxGeometry x="330" y="1640" width="30" height="30" as="geometry" />
        </mxCell>
        <mxCell id="z_o5YdLHFXMN_9M8HcGV-251" value="" style="shape=image;verticalLabelPosition=bottom;labelBackgroundColor=#ffffff;verticalAlign=top;aspect=fixed;imageAspect=0;image=data:image/png,iVBORw0KGgoAAAANSUhEUgAAAB4AAAAeCAYAAAA7MK6iAAABhGlDQ1BJQ0MgcHJvZmlsZQAAKJF9kT1Iw0AcxV9TpVJaHCwo4hChOlkQFXHUKhShQqkVWnUwufQLmjQkKS6OgmvBwY/FqoOLs64OroIg+AHi5uak6CIl/i8ptIjx4Lgf7+497t4BQqPCVLNrHFA1y0gn4mI2tyoGXhFEGP0YhiAxU59LpZLwHF/38PH1LsazvM/9OcJK3mSATySeZbphEW8QT29aOud94ggrSQrxOfGYQRckfuS67PIb56LDAs+MGJn0PHGEWCx2sNzBrGSoxFPEUUXVKF/Iuqxw3uKsVmqsdU/+wlBeW1nmOs0hJLCIJaQgQkYNZVRgIUarRoqJNO3HPfyDjj9FLplcZTByLKAKFZLjB/+D392ahckJNykUB7pfbPtjBAjsAs26bX8f23bzBPA/A1da219tADOfpNfbWvQI6N0GLq7bmrwHXO4AA0+6ZEiO5KcpFArA+xl9Uw7ouwWCa25vrX2cPgAZ6ip5AxwcAqNFyl73eHdPZ2//nmn19wM3b3KPzEF1BgAAAAZiS0dEAP8A/wD/oL2nkwAAAAlwSFlzAAAuIwAALiMBeKU/dgAAAAd0SU1FB+UKDRchNfHChNgAAAAZdEVYdENvbW1lbnQAQ3JlYXRlZCB3aXRoIEdJTVBXgQ4XAAAAa0lEQVRIx+2VsQ4AIQxCpbn//2VvuMXcVIXahZc4UwHrGMYYY4yOOb/DEdwALcKcODSCwIUb8/kKrD4fJrreBrQ3y2cNvZ058QKrcwPGzSavPEQ90NDqf45lCwRQW12wQOSt5jIt+iT243gBKuYeFRz5PX8AAAAASUVORK5CYII=;" parent="1" vertex="1">
          <mxGeometry x="330" y="680" width="30" height="30" as="geometry" />
        </mxCell>
        <mxCell id="z_o5YdLHFXMN_9M8HcGV-252" value="" style="shape=image;verticalLabelPosition=bottom;labelBackgroundColor=#ffffff;verticalAlign=top;aspect=fixed;imageAspect=0;image=data:image/png,iVBORw0KGgoAAAANSUhEUgAAAB4AAAAeCAYAAAA7MK6iAAABhGlDQ1BJQ0MgcHJvZmlsZQAAKJF9kT1Iw0AcxV9TpVJaHCwo4hChOlkQFXHUKhShQqkVWnUwufQLmjQkKS6OgmvBwY/FqoOLs64OroIg+AHi5uak6CIl/i8ptIjx4Lgf7+497t4BQqPCVLNrHFA1y0gn4mI2tyoGXhFEGP0YhiAxU59LpZLwHF/38PH1LsazvM/9OcJK3mSATySeZbphEW8QT29aOud94ggrSQrxOfGYQRckfuS67PIb56LDAs+MGJn0PHGEWCx2sNzBrGSoxFPEUUXVKF/Iuqxw3uKsVmqsdU/+wlBeW1nmOs0hJLCIJaQgQkYNZVRgIUarRoqJNO3HPfyDjj9FLplcZTByLKAKFZLjB/+D392ahckJNykUB7pfbPtjBAjsAs26bX8f23bzBPA/A1da219tADOfpNfbWvQI6N0GLq7bmrwHXO4AA0+6ZEiO5KcpFArA+xl9Uw7ouwWCa25vrX2cPgAZ6ip5AxwcAqNFyl73eHdPZ2//nmn19wM3b3KPzEF1BgAAAAZiS0dEAP8A/wD/oL2nkwAAAAlwSFlzAAAuIwAALiMBeKU/dgAAAAd0SU1FB+UKDRchNfHChNgAAAAZdEVYdENvbW1lbnQAQ3JlYXRlZCB3aXRoIEdJTVBXgQ4XAAAAa0lEQVRIx+2VsQ4AIQxCpbn//2VvuMXcVIXahZc4UwHrGMYYY4yOOb/DEdwALcKcODSCwIUb8/kKrD4fJrreBrQ3y2cNvZ058QKrcwPGzSavPEQ90NDqf45lCwRQW12wQOSt5jIt+iT243gBKuYeFRz5PX8AAAAASUVORK5CYII=;" parent="1" vertex="1">
          <mxGeometry x="330" y="360" width="30" height="30" as="geometry" />
        </mxCell>
        <mxCell id="z_o5YdLHFXMN_9M8HcGV-253" value="" style="shape=image;verticalLabelPosition=bottom;labelBackgroundColor=#ffffff;verticalAlign=top;aspect=fixed;imageAspect=0;image=data:image/png,iVBORw0KGgoAAAANSUhEUgAAAB4AAAAeCAYAAAA7MK6iAAABhGlDQ1BJQ0MgcHJvZmlsZQAAKJF9kT1Iw0AcxV9TpVJaHCwo4hChOlkQFXHUKhShQqkVWnUwufQLmjQkKS6OgmvBwY/FqoOLs64OroIg+AHi5uak6CIl/i8ptIjx4Lgf7+497t4BQqPCVLNrHFA1y0gn4mI2tyoGXhFEGP0YhiAxU59LpZLwHF/38PH1LsazvM/9OcJK3mSATySeZbphEW8QT29aOud94ggrSQrxOfGYQRckfuS67PIb56LDAs+MGJn0PHGEWCx2sNzBrGSoxFPEUUXVKF/Iuqxw3uKsVmqsdU/+wlBeW1nmOs0hJLCIJaQgQkYNZVRgIUarRoqJNO3HPfyDjj9FLplcZTByLKAKFZLjB/+D392ahckJNykUB7pfbPtjBAjsAs26bX8f23bzBPA/A1da219tADOfpNfbWvQI6N0GLq7bmrwHXO4AA0+6ZEiO5KcpFArA+xl9Uw7ouwWCa25vrX2cPgAZ6ip5AxwcAqNFyl73eHdPZ2//nmn19wM3b3KPzEF1BgAAAAZiS0dEAP8A/wD/oL2nkwAAAAlwSFlzAAAuIwAALiMBeKU/dgAAAAd0SU1FB+UKDRchNfHChNgAAAAZdEVYdENvbW1lbnQAQ3JlYXRlZCB3aXRoIEdJTVBXgQ4XAAAAa0lEQVRIx+2VsQ4AIQxCpbn//2VvuMXcVIXahZc4UwHrGMYYY4yOOb/DEdwALcKcODSCwIUb8/kKrD4fJrreBrQ3y2cNvZ058QKrcwPGzSavPEQ90NDqf45lCwRQW12wQOSt5jIt+iT243gBKuYeFRz5PX8AAAAASUVORK5CYII=;" parent="1" vertex="1">
          <mxGeometry x="690" y="360" width="30" height="30" as="geometry" />
        </mxCell>
        <mxCell id="z_o5YdLHFXMN_9M8HcGV-254" value="" style="shape=image;verticalLabelPosition=bottom;labelBackgroundColor=#ffffff;verticalAlign=top;aspect=fixed;imageAspect=0;image=data:image/png,iVBORw0KGgoAAAANSUhEUgAAAB4AAAAeCAYAAAA7MK6iAAABhGlDQ1BJQ0MgcHJvZmlsZQAAKJF9kT1Iw0AcxV9TpVJaHCwo4hChOlkQFXHUKhShQqkVWnUwufQLmjQkKS6OgmvBwY/FqoOLs64OroIg+AHi5uak6CIl/i8ptIjx4Lgf7+497t4BQqPCVLNrHFA1y0gn4mI2tyoGXhFEGP0YhiAxU59LpZLwHF/38PH1LsazvM/9OcJK3mSATySeZbphEW8QT29aOud94ggrSQrxOfGYQRckfuS67PIb56LDAs+MGJn0PHGEWCx2sNzBrGSoxFPEUUXVKF/Iuqxw3uKsVmqsdU/+wlBeW1nmOs0hJLCIJaQgQkYNZVRgIUarRoqJNO3HPfyDjj9FLplcZTByLKAKFZLjB/+D392ahckJNykUB7pfbPtjBAjsAs26bX8f23bzBPA/A1da219tADOfpNfbWvQI6N0GLq7bmrwHXO4AA0+6ZEiO5KcpFArA+xl9Uw7ouwWCa25vrX2cPgAZ6ip5AxwcAqNFyl73eHdPZ2//nmn19wM3b3KPzEF1BgAAAAZiS0dEAP8A/wD/oL2nkwAAAAlwSFlzAAAuIwAALiMBeKU/dgAAAAd0SU1FB+UKDRchNfHChNgAAAAZdEVYdENvbW1lbnQAQ3JlYXRlZCB3aXRoIEdJTVBXgQ4XAAAAa0lEQVRIx+2VsQ4AIQxCpbn//2VvuMXcVIXahZc4UwHrGMYYY4yOOb/DEdwALcKcODSCwIUb8/kKrD4fJrreBrQ3y2cNvZ058QKrcwPGzSavPEQ90NDqf45lCwRQW12wQOSt5jIt+iT243gBKuYeFRz5PX8AAAAASUVORK5CYII=;" parent="1" vertex="1">
          <mxGeometry x="690" y="40" width="30" height="30" as="geometry" />
        </mxCell>
        <mxCell id="z_o5YdLHFXMN_9M8HcGV-255" value="" style="shape=image;verticalLabelPosition=bottom;labelBackgroundColor=#ffffff;verticalAlign=top;aspect=fixed;imageAspect=0;image=data:image/png,iVBORw0KGgoAAAANSUhEUgAAAB4AAAAeCAYAAAA7MK6iAAABhGlDQ1BJQ0MgcHJvZmlsZQAAKJF9kT1Iw0AcxV9TpVJaHCwo4hChOlkQFXHUKhShQqkVWnUwufQLmjQkKS6OgmvBwY/FqoOLs64OroIg+AHi5uak6CIl/i8ptIjx4Lgf7+497t4BQqPCVLNrHFA1y0gn4mI2tyoGXhFEGP0YhiAxU59LpZLwHF/38PH1LsazvM/9OcJK3mSATySeZbphEW8QT29aOud94ggrSQrxOfGYQRckfuS67PIb56LDAs+MGJn0PHGEWCx2sNzBrGSoxFPEUUXVKF/Iuqxw3uKsVmqsdU/+wlBeW1nmOs0hJLCIJaQgQkYNZVRgIUarRoqJNO3HPfyDjj9FLplcZTByLKAKFZLjB/+D392ahckJNykUB7pfbPtjBAjsAs26bX8f23bzBPA/A1da219tADOfpNfbWvQI6N0GLq7bmrwHXO4AA0+6ZEiO5KcpFArA+xl9Uw7ouwWCa25vrX2cPgAZ6ip5AxwcAqNFyl73eHdPZ2//nmn19wM3b3KPzEF1BgAAAAZiS0dEAP8A/wD/oL2nkwAAAAlwSFlzAAAuIwAALiMBeKU/dgAAAAd0SU1FB+UKDRchNfHChNgAAAAZdEVYdENvbW1lbnQAQ3JlYXRlZCB3aXRoIEdJTVBXgQ4XAAAAa0lEQVRIx+2VsQ4AIQxCpbn//2VvuMXcVIXahZc4UwHrGMYYY4yOOb/DEdwALcKcODSCwIUb8/kKrD4fJrreBrQ3y2cNvZ058QKrcwPGzSavPEQ90NDqf45lCwRQW12wQOSt5jIt+iT243gBKuYeFRz5PX8AAAAASUVORK5CYII=;" parent="1" vertex="1">
          <mxGeometry x="330" y="40" width="30" height="30" as="geometry" />
        </mxCell>
        <mxCell id="z_o5YdLHFXMN_9M8HcGV-256" value="" style="shape=image;verticalLabelPosition=bottom;labelBackgroundColor=#ffffff;verticalAlign=top;aspect=fixed;imageAspect=0;image=data:image/png,iVBORw0KGgoAAAANSUhEUgAAAB4AAAAeCAYAAAA7MK6iAAABhGlDQ1BJQ0MgcHJvZmlsZQAAKJF9kT1Iw0AcxV9TRSktDhYUEcxQnSxIFXHUKhShQqgVWnUwufQLmjQkLS6OgmvBwY/FqoOLs64OroIg+AHi5uak6CIl/i8ptIjx4Lgf7+497t4BQqPMNKtrAtD0qplKxMVMdlXseUUAIQxgBDGZWcacJCXhOb7u4ePrXZRneZ/7c4TUnMUAn0g8ywyzSrxBPL1ZNTjvE4dZUVaJz4nHTbog8SPXFZffOBccFnhm2Eyn5onDxGKhg5UOZkVTI54ijqiaTvlCxmWV8xZnrVxjrXvyFwZz+soy12kOI4FFLEGCCAU1lFBGFVFadVIspGg/7uEfcvwSuRRylcDIsYAKNMiOH/wPfndr5SdjblIwDnS/2PbHKNCzCzTrtv19bNvNE8D/DFzpbX+lAcx8kl5va5EjoG8buLhua8oecLkDDD4Zsik7kp+mkM8D72f0TVmg/xYIrLm9tfZx+gCkqavkDXBwCIwVKHvd4929nb39e6bV3w+p4XK9E7D0QAAAAAZiS0dEAP8A/wD/oL2nkwAAAAlwSFlzAAAuIwAALiMBeKU/dgAAAAd0SU1FB+UKDRcgCce2yR4AAAAZdEVYdENvbW1lbnQAQ3JlYXRlZCB3aXRoIEdJTVBXgQ4XAAAApUlEQVRIx9WWwRWAIAxDQ1dw/xGZQU/clNc0QbRHHyX8khYBMjpwduCEGFFNVMVDSVbEm0PoIPeRibeVWil5vGWmZaVmDxY7aLeaq7lps631zXZS73aW/z1iF+3TPiXiymxOCc9oHaI0cVY0c03hFGWqYXd11pRRpb37xnTCv38EXhdWDGclPoAmvU5MW4y17GAJFykLEO7ROFpKHq3sK2UdICviAr59LA/cDBNXAAAAAElFTkSuQmCC;" parent="1" vertex="1">
          <mxGeometry x="330" y="1000" width="30" height="30" as="geometry" />
        </mxCell>
        <mxCell id="z_o5YdLHFXMN_9M8HcGV-257" value="" style="shape=image;verticalLabelPosition=bottom;labelBackgroundColor=#ffffff;verticalAlign=top;aspect=fixed;imageAspect=0;image=data:image/png,iVBORw0KGgoAAAANSUhEUgAAAB4AAAAeCAYAAAA7MK6iAAABhGlDQ1BJQ0MgcHJvZmlsZQAAKJF9kT1Iw0AcxV9TRSktDhYUEcxQnSxIFXHUKhShQqgVWnUwufQLmjQkLS6OgmvBwY/FqoOLs64OroIg+AHi5uak6CIl/i8ptIjx4Lgf7+497t4BQqPMNKtrAtD0qplKxMVMdlXseUUAIQxgBDGZWcacJCXhOb7u4ePrXZRneZ/7c4TUnMUAn0g8ywyzSrxBPL1ZNTjvE4dZUVaJz4nHTbog8SPXFZffOBccFnhm2Eyn5onDxGKhg5UOZkVTI54ijqiaTvlCxmWV8xZnrVxjrXvyFwZz+soy12kOI4FFLEGCCAU1lFBGFVFadVIspGg/7uEfcvwSuRRylcDIsYAKNMiOH/wPfndr5SdjblIwDnS/2PbHKNCzCzTrtv19bNvNE8D/DFzpbX+lAcx8kl5va5EjoG8buLhua8oecLkDDD4Zsik7kp+mkM8D72f0TVmg/xYIrLm9tfZx+gCkqavkDXBwCIwVKHvd4929nb39e6bV3w+p4XK9E7D0QAAAAAZiS0dEAP8A/wD/oL2nkwAAAAlwSFlzAAAuIwAALiMBeKU/dgAAAAd0SU1FB+UKDRcgCce2yR4AAAAZdEVYdENvbW1lbnQAQ3JlYXRlZCB3aXRoIEdJTVBXgQ4XAAAApUlEQVRIx9WWwRWAIAxDQ1dw/xGZQU/clNc0QbRHHyX8khYBMjpwduCEGFFNVMVDSVbEm0PoIPeRibeVWil5vGWmZaVmDxY7aLeaq7lps631zXZS73aW/z1iF+3TPiXiymxOCc9oHaI0cVY0c03hFGWqYXd11pRRpb37xnTCv38EXhdWDGclPoAmvU5MW4y17GAJFykLEO7ROFpKHq3sK2UdICviAr59LA/cDBNXAAAAAElFTkSuQmCC;" parent="1" vertex="1">
          <mxGeometry x="690" y="1000" width="30" height="30" as="geometry" />
        </mxCell>
        <mxCell id="z_o5YdLHFXMN_9M8HcGV-260" value="" style="shape=image;verticalLabelPosition=bottom;labelBackgroundColor=#ffffff;verticalAlign=top;aspect=fixed;imageAspect=0;image=data:image/png,iVBORw0KGgoAAAANSUhEUgAAAB4AAAAeCAYAAAA7MK6iAAABg2lDQ1BJQ0MgcHJvZmlsZQAAKJF9kT1Iw0AcxV9TpVJaBO0g4pChOlkQFXHUKhShQqgVWnUwufQLmhiSFBdHwbXg4Mdi1cHFWVcHV0EQ/ABxc3NSdJES/5cUWsR4cNyPd/ced+8AoVFlmtU1Bmi6bWZSSTGXXxFDrwgjij4ACZlZxqwkpeE7vu4R4Otdgmf5n/tzRNWCxYCASDzDDNMmXiee2rQNzvvEMVaWVeJz4lGTLkj8yHXF4zfOJZcFnhkzs5k54hixWOpgpYNZ2dSIJ4njqqZTvpDzWOW8xVmr1ljrnvyFkYK+vMR1mkNIYQGLkCBCQQ0VVGEjQatOioUM7Sd9/IOuXyKXQq4KGDnmsQENsusH/4Pf3VrFiXEvKZIEul8c52MYCO0CzbrjfB87TvMECD4DV3rbv9EApj9Jr7e1+BHQuw1cXLc1ZQ+43AEGngzZlF0pSFMoFoH3M/qmPNB/C4RXvd5a+zh9ALLUVfoGODgERkqUvebz7p7O3v490+rvB0OKcpQIXSxQAAAABmJLR0QA/wD/AP+gvaeTAAAACXBIWXMAAC4jAAAuIwF4pT92AAAAB3RJTUUH5QoNFxsmUNUbfwAAABl0RVh0Q29tbWVudABDcmVhdGVkIHdpdGggR0lNUFeBDhcAAAC/SURBVEjH7ZbRCYAwDERNhnAoB3Yol9AvoZTW3OVa/bEgCJq8S3JEl+U/Lx27b9btPHsvHbvZJ+AZIqAkLVGqADq4FpEVkFatCghnHCUs4xg4Za5e4gzcRhmLhdvIuTJwU42VhafNhcAlcHauEdxUY/XgElit7gnuKLhVTf0M/dCEM2bmylbtUXvRncxW7WVgeSGLg2ktPONaQBbSE+mMqVC3IyJ91KqUWt0y06yfPW9Vo5hGNtdr4LKdM1r7nwtUcL9o+gyz3QAAAABJRU5ErkJggg==;" parent="1" vertex="1">
          <mxGeometry x="807" width="20" height="20" as="geometry" />
        </mxCell>
        <mxCell id="z_o5YdLHFXMN_9M8HcGV-261" value="" style="shape=image;verticalLabelPosition=bottom;labelBackgroundColor=#ffffff;verticalAlign=top;aspect=fixed;imageAspect=0;image=data:image/png,iVBORw0KGgoAAAANSUhEUgAAAB4AAAAeCAYAAAA7MK6iAAABg2lDQ1BJQ0MgcHJvZmlsZQAAKJF9kT1Iw0AcxV9TpVJaBO0g4pChOlkQFXHUKhShQqgVWnUwufQLmhiSFBdHwbXg4Mdi1cHFWVcHV0EQ/ABxc3NSdJES/5cUWsR4cNyPd/ced+8AoVFlmtU1Bmi6bWZSSTGXXxFDrwgjij4ACZlZxqwkpeE7vu4R4Otdgmf5n/tzRNWCxYCASDzDDNMmXiee2rQNzvvEMVaWVeJz4lGTLkj8yHXF4zfOJZcFnhkzs5k54hixWOpgpYNZ2dSIJ4njqqZTvpDzWOW8xVmr1ljrnvyFkYK+vMR1mkNIYQGLkCBCQQ0VVGEjQatOioUM7Sd9/IOuXyKXQq4KGDnmsQENsusH/4Pf3VrFiXEvKZIEul8c52MYCO0CzbrjfB87TvMECD4DV3rbv9EApj9Jr7e1+BHQuw1cXLc1ZQ+43AEGngzZlF0pSFMoFoH3M/qmPNB/C4RXvd5a+zh9ALLUVfoGODgERkqUvebz7p7O3v490+rvB0OKcpQIXSxQAAAABmJLR0QA/wD/AP+gvaeTAAAACXBIWXMAAC4jAAAuIwF4pT92AAAAB3RJTUUH5QoNFxsvKQmj2wAAABl0RVh0Q29tbWVudABDcmVhdGVkIHdpdGggR0lNUFeBDhcAAACCSURBVEjH7ZYxDsAgCEU/TU/k6vlZvRKdujTGoKLUBCYnnvC/IHBccBJwkv3Q2nkbdAJ+eSkV4AD/EDw5QKLVAQ6wE7j1bpft5W/i2gDpgN8mFwCAXMi+1ZxElTgX0lbtpvEhrm61e4nGWu20Xhhy9Zt40M22y3/gU0Amw2RL1UbxACN5QX6Wo0pAAAAAAElFTkSuQmCC;" parent="1" vertex="1">
          <mxGeometry x="788" width="20" height="20" as="geometry" />
        </mxCell>
        <mxCell id="z_o5YdLHFXMN_9M8HcGV-262" value="" style="shape=image;verticalLabelPosition=bottom;labelBackgroundColor=#ffffff;verticalAlign=top;aspect=fixed;imageAspect=0;image=data:image/png,iVBORw0KGgoAAAANSUhEUgAAAB4AAAAeCAYAAAA7MK6iAAABg2lDQ1BJQ0MgcHJvZmlsZQAAKJF9kT1Iw0AcxV9TpVJaBO0g4pChOlkQFXHUKhShQqgVWnUwufQLmhiSFBdHwbXg4Mdi1cHFWVcHV0EQ/ABxc3NSdJES/5cUWsR4cNyPd/ced+8AoVFlmtU1Bmi6bWZSSTGXXxFDrwgjij4ACZlZxqwkpeE7vu4R4Otdgmf5n/tzRNWCxYCASDzDDNMmXiee2rQNzvvEMVaWVeJz4lGTLkj8yHXF4zfOJZcFnhkzs5k54hixWOpgpYNZ2dSIJ4njqqZTvpDzWOW8xVmr1ljrnvyFkYK+vMR1mkNIYQGLkCBCQQ0VVGEjQatOioUM7Sd9/IOuXyKXQq4KGDnmsQENsusH/4Pf3VrFiXEvKZIEul8c52MYCO0CzbrjfB87TvMECD4DV3rbv9EApj9Jr7e1+BHQuw1cXLc1ZQ+43AEGngzZlF0pSFMoFoH3M/qmPNB/C4RXvd5a+zh9ALLUVfoGODgERkqUvebz7p7O3v490+rvB0OKcpQIXSxQAAAABmJLR0QA/wD/AP+gvaeTAAAACXBIWXMAAC4jAAAuIwF4pT92AAAAB3RJTUUH5QoNFxwFvfP8ygAAABl0RVh0Q29tbWVudABDcmVhdGVkIHdpdGggR0lNUFeBDhcAAACUSURBVEjH1ZdBEoAwCAOR8Xk+1//VKyeBJohwFbKm05Eo0lRHpnndsl7FrpxeCOhBM31SJQS9gDcYPQEqNCMahtMFI71UMadfpbtQB9kZHeV2d8bOtTmeCUa+y9pxPyCwXYE7cMgxAoePGnUu6AKP7GD7/KRlKCT2UGLLmO1U6ZqeQkq0GHAoaX4eb6sD/b9/YSrqAccOkMluodH6AAAAAElFTkSuQmCC;" parent="1" vertex="1">
          <mxGeometry x="768" width="20" height="20" as="geometry" />
        </mxCell>
        <mxCell id="z_o5YdLHFXMN_9M8HcGV-266" value="" style="shape=image;verticalLabelPosition=bottom;labelBackgroundColor=#ffffff;verticalAlign=top;aspect=fixed;imageAspect=0;image=data:image/png,iVBORw0KGgoAAAANSUhEUgAAAB4AAAAeCAYAAAA7MK6iAAABg2lDQ1BJQ0MgcHJvZmlsZQAAKJF9kT1Iw0AcxV9TpVJaBO0g4pChOlkQFXHUKhShQqgVWnUwufQLmhiSFBdHwbXg4Mdi1cHFWVcHV0EQ/ABxc3NSdJES/5cUWsR4cNyPd/ced+8AoVFlmtU1Bmi6bWZSSTGXXxFDrwgjij4ACZlZxqwkpeE7vu4R4Otdgmf5n/tzRNWCxYCASDzDDNMmXiee2rQNzvvEMVaWVeJz4lGTLkj8yHXF4zfOJZcFnhkzs5k54hixWOpgpYNZ2dSIJ4njqqZTvpDzWOW8xVmr1ljrnvyFkYK+vMR1mkNIYQGLkCBCQQ0VVGEjQatOioUM7Sd9/IOuXyKXQq4KGDnmsQENsusH/4Pf3VrFiXEvKZIEul8c52MYCO0CzbrjfB87TvMECD4DV3rbv9EApj9Jr7e1+BHQuw1cXLc1ZQ+43AEGngzZlF0pSFMoFoH3M/qmPNB/C4RXvd5a+zh9ALLUVfoGODgERkqUvebz7p7O3v490+rvB0OKcpQIXSxQAAAABmJLR0QA/wD/AP+gvaeTAAAACXBIWXMAAC4jAAAuIwF4pT92AAAAB3RJTUUH5QoNFxsvKQmj2wAAABl0RVh0Q29tbWVudABDcmVhdGVkIHdpdGggR0lNUFeBDhcAAACCSURBVEjH7ZYxDsAgCEU/TU/k6vlZvRKdujTGoKLUBCYnnvC/IHBccBJwkv3Q2nkbdAJ+eSkV4AD/EDw5QKLVAQ6wE7j1bpft5W/i2gDpgN8mFwCAXMi+1ZxElTgX0lbtpvEhrm61e4nGWu20Xhhy9Zt40M22y3/gU0Amw2RL1UbxACN5QX6Wo0pAAAAAAElFTkSuQmCC;" parent="1" vertex="1">
          <mxGeometry x="400" y="1220" width="20" height="20" as="geometry" />
        </mxCell>
        <mxCell id="z_o5YdLHFXMN_9M8HcGV-267" value="26.3 °C" style="text;html=1;strokeColor=none;fillColor=none;align=left;verticalAlign=middle;whiteSpace=wrap;rounded=0;fontColor=#FFFFFF;" parent="1" vertex="1">
          <mxGeometry x="55" y="900" width="51" height="20" as="geometry" />
        </mxCell>
        <mxCell id="z_o5YdLHFXMN_9M8HcGV-268" value="" style="shape=image;verticalLabelPosition=bottom;labelBackgroundColor=#ffffff;verticalAlign=top;aspect=fixed;imageAspect=0;image=data:image/png,iVBORw0KGgoAAAANSUhEUgAAAB4AAAAeCAYAAAA7MK6iAAABg2lDQ1BJQ0MgcHJvZmlsZQAAKJF9kT1Iw0AcxV9TpVJaBO0g4pChOlkQFXHUKhShQqgVWnUwufQLmhiSFBdHwbXg4Mdi1cHFWVcHV0EQ/ABxc3NSdJES/5cUWsR4cNyPd/ced+8AoVFlmtU1Bmi6bWZSSTGXXxFDrwgjij4ACZlZxqwkpeE7vu4R4Otdgmf5n/tzRNWCxYCASDzDDNMmXiee2rQNzvvEMVaWVeJz4lGTLkj8yHXF4zfOJZcFnhkzs5k54hixWOpgpYNZ2dSIJ4njqqZTvpDzWOW8xVmr1ljrnvyFkYK+vMR1mkNIYQGLkCBCQQ0VVGEjQatOioUM7Sd9/IOuXyKXQq4KGDnmsQENsusH/4Pf3VrFiXEvKZIEul8c52MYCO0CzbrjfB87TvMECD4DV3rbv9EApj9Jr7e1+BHQuw1cXLc1ZQ+43AEGngzZlF0pSFMoFoH3M/qmPNB/C4RXvd5a+zh9ALLUVfoGODgERkqUvebz7p7O3v490+rvB0OKcpQIXSxQAAAABmJLR0QA/wD/AP+gvaeTAAAACXBIWXMAAC4jAAAuIwF4pT92AAAAB3RJTUUH5QoNFxsvKQmj2wAAABl0RVh0Q29tbWVudABDcmVhdGVkIHdpdGggR0lNUFeBDhcAAACCSURBVEjH7ZYxDsAgCEU/TU/k6vlZvRKdujTGoKLUBCYnnvC/IHBccBJwkv3Q2nkbdAJ+eSkV4AD/EDw5QKLVAQ6wE7j1bpft5W/i2gDpgN8mFwCAXMi+1ZxElTgX0lbtpvEhrm61e4nGWu20Xhhy9Zt40M22y3/gU0Amw2RL1UbxACN5QX6Wo0pAAAAAAElFTkSuQmCC;" parent="1" vertex="1">
          <mxGeometry x="40" y="900" width="20" height="20" as="geometry" />
        </mxCell>
        <mxCell id="z_o5YdLHFXMN_9M8HcGV-269" value="" style="shape=image;verticalLabelPosition=bottom;labelBackgroundColor=#ffffff;verticalAlign=top;aspect=fixed;imageAspect=0;image=data:image/png,iVBORw0KGgoAAAANSUhEUgAAAB4AAAAeCAYAAAA7MK6iAAABg2lDQ1BJQ0MgcHJvZmlsZQAAKJF9kT1Iw0AcxV9TpVJaBO0g4pChOlkQFXHUKhShQqgVWnUwufQLmhiSFBdHwbXg4Mdi1cHFWVcHV0EQ/ABxc3NSdJES/5cUWsR4cNyPd/ced+8AoVFlmtU1Bmi6bWZSSTGXXxFDrwgjij4ACZlZxqwkpeE7vu4R4Otdgmf5n/tzRNWCxYCASDzDDNMmXiee2rQNzvvEMVaWVeJz4lGTLkj8yHXF4zfOJZcFnhkzs5k54hixWOpgpYNZ2dSIJ4njqqZTvpDzWOW8xVmr1ljrnvyFkYK+vMR1mkNIYQGLkCBCQQ0VVGEjQatOioUM7Sd9/IOuXyKXQq4KGDnmsQENsusH/4Pf3VrFiXEvKZIEul8c52MYCO0CzbrjfB87TvMECD4DV3rbv9EApj9Jr7e1+BHQuw1cXLc1ZQ+43AEGngzZlF0pSFMoFoH3M/qmPNB/C4RXvd5a+zh9ALLUVfoGODgERkqUvebz7p7O3v490+rvB0OKcpQIXSxQAAAABmJLR0QA/wD/AP+gvaeTAAAACXBIWXMAAC4jAAAuIwF4pT92AAAAB3RJTUUH5QoNFxsvKQmj2wAAABl0RVh0Q29tbWVudABDcmVhdGVkIHdpdGggR0lNUFeBDhcAAACCSURBVEjH7ZYxDsAgCEU/TU/k6vlZvRKdujTGoKLUBCYnnvC/IHBccBJwkv3Q2nkbdAJ+eSkV4AD/EDw5QKLVAQ6wE7j1bpft5W/i2gDpgN8mFwCAXMi+1ZxElTgX0lbtpvEhrm61e4nGWu20Xhhy9Zt40M22y3/gU0Amw2RL1UbxACN5QX6Wo0pAAAAAAElFTkSuQmCC;" parent="1" vertex="1">
          <mxGeometry x="40" y="580" width="20" height="20" as="geometry" />
        </mxCell>
        <mxCell id="z_o5YdLHFXMN_9M8HcGV-270" value="26.3 °C" style="text;html=1;strokeColor=none;fillColor=none;align=left;verticalAlign=middle;whiteSpace=wrap;rounded=0;fontColor=#FFFFFF;" parent="1" vertex="1">
          <mxGeometry x="55" y="580" width="51" height="20" as="geometry" />
        </mxCell>
        <mxCell id="z_o5YdLHFXMN_9M8HcGV-271" value="" style="shape=image;verticalLabelPosition=bottom;labelBackgroundColor=#ffffff;verticalAlign=top;aspect=fixed;imageAspect=0;image=data:image/png,iVBORw0KGgoAAAANSUhEUgAAAB4AAAAeCAYAAAA7MK6iAAABg2lDQ1BJQ0MgcHJvZmlsZQAAKJF9kT1Iw0AcxV9TpVJaBO0g4pChOlkQFXHUKhShQqgVWnUwufQLmhiSFBdHwbXg4Mdi1cHFWVcHV0EQ/ABxc3NSdJES/5cUWsR4cNyPd/ced+8AoVFlmtU1Bmi6bWZSSTGXXxFDrwgjij4ACZlZxqwkpeE7vu4R4Otdgmf5n/tzRNWCxYCASDzDDNMmXiee2rQNzvvEMVaWVeJz4lGTLkj8yHXF4zfOJZcFnhkzs5k54hixWOpgpYNZ2dSIJ4njqqZTvpDzWOW8xVmr1ljrnvyFkYK+vMR1mkNIYQGLkCBCQQ0VVGEjQatOioUM7Sd9/IOuXyKXQq4KGDnmsQENsusH/4Pf3VrFiXEvKZIEul8c52MYCO0CzbrjfB87TvMECD4DV3rbv9EApj9Jr7e1+BHQuw1cXLc1ZQ+43AEGngzZlF0pSFMoFoH3M/qmPNB/C4RXvd5a+zh9ALLUVfoGODgERkqUvebz7p7O3v490+rvB0OKcpQIXSxQAAAABmJLR0QA/wD/AP+gvaeTAAAACXBIWXMAAC4jAAAuIwF4pT92AAAAB3RJTUUH5QoNFxsvKQmj2wAAABl0RVh0Q29tbWVudABDcmVhdGVkIHdpdGggR0lNUFeBDhcAAACCSURBVEjH7ZYxDsAgCEU/TU/k6vlZvRKdujTGoKLUBCYnnvC/IHBccBJwkv3Q2nkbdAJ+eSkV4AD/EDw5QKLVAQ6wE7j1bpft5W/i2gDpgN8mFwCAXMi+1ZxElTgX0lbtpvEhrm61e4nGWu20Xhhy9Zt40M22y3/gU0Amw2RL1UbxACN5QX6Wo0pAAAAAAElFTkSuQmCC;" parent="1" vertex="1">
          <mxGeometry x="401" y="580" width="20" height="20" as="geometry" />
        </mxCell>
        <mxCell id="z_o5YdLHFXMN_9M8HcGV-272" value="26.3 °C" style="text;html=1;strokeColor=none;fillColor=none;align=left;verticalAlign=middle;whiteSpace=wrap;rounded=0;fontColor=#FFFFFF;" parent="1" vertex="1">
          <mxGeometry x="416" y="580" width="51" height="20" as="geometry" />
        </mxCell>
        <mxCell id="z_o5YdLHFXMN_9M8HcGV-273" value="" style="shape=image;verticalLabelPosition=bottom;labelBackgroundColor=#ffffff;verticalAlign=top;aspect=fixed;imageAspect=0;image=data:image/png,iVBORw0KGgoAAAANSUhEUgAAAB4AAAAeCAYAAAA7MK6iAAABg2lDQ1BJQ0MgcHJvZmlsZQAAKJF9kT1Iw0AcxV9TpVJaBO0g4pChOlkQFXHUKhShQqgVWnUwufQLmhiSFBdHwbXg4Mdi1cHFWVcHV0EQ/ABxc3NSdJES/5cUWsR4cNyPd/ced+8AoVFlmtU1Bmi6bWZSSTGXXxFDrwgjij4ACZlZxqwkpeE7vu4R4Otdgmf5n/tzRNWCxYCASDzDDNMmXiee2rQNzvvEMVaWVeJz4lGTLkj8yHXF4zfOJZcFnhkzs5k54hixWOpgpYNZ2dSIJ4njqqZTvpDzWOW8xVmr1ljrnvyFkYK+vMR1mkNIYQGLkCBCQQ0VVGEjQatOioUM7Sd9/IOuXyKXQq4KGDnmsQENsusH/4Pf3VrFiXEvKZIEul8c52MYCO0CzbrjfB87TvMECD4DV3rbv9EApj9Jr7e1+BHQuw1cXLc1ZQ+43AEGngzZlF0pSFMoFoH3M/qmPNB/C4RXvd5a+zh9ALLUVfoGODgERkqUvebz7p7O3v490+rvB0OKcpQIXSxQAAAABmJLR0QA/wD/AP+gvaeTAAAACXBIWXMAAC4jAAAuIwF4pT92AAAAB3RJTUUH5QoNFxsmUNUbfwAAABl0RVh0Q29tbWVudABDcmVhdGVkIHdpdGggR0lNUFeBDhcAAAC/SURBVEjH7ZbRCYAwDERNhnAoB3Yol9AvoZTW3OVa/bEgCJq8S3JEl+U/Lx27b9btPHsvHbvZJ+AZIqAkLVGqADq4FpEVkFatCghnHCUs4xg4Za5e4gzcRhmLhdvIuTJwU42VhafNhcAlcHauEdxUY/XgElit7gnuKLhVTf0M/dCEM2bmylbtUXvRncxW7WVgeSGLg2ktPONaQBbSE+mMqVC3IyJ91KqUWt0y06yfPW9Vo5hGNtdr4LKdM1r7nwtUcL9o+gyz3QAAAABJRU5ErkJggg==;" parent="1" vertex="1">
          <mxGeometry x="700" y="240" width="20" height="20" as="geometry" />
        </mxCell>
        <mxCell id="z_o5YdLHFXMN_9M8HcGV-274" value="" style="shape=image;verticalLabelPosition=bottom;labelBackgroundColor=#ffffff;verticalAlign=top;aspect=fixed;imageAspect=0;image=data:image/png,iVBORw0KGgoAAAANSUhEUgAAAB4AAAAeCAYAAAA7MK6iAAABg2lDQ1BJQ0MgcHJvZmlsZQAAKJF9kT1Iw0AcxV9TpVJaBO0g4pChOlkQFXHUKhShQqgVWnUwufQLmhiSFBdHwbXg4Mdi1cHFWVcHV0EQ/ABxc3NSdJES/5cUWsR4cNyPd/ced+8AoVFlmtU1Bmi6bWZSSTGXXxFDrwgjij4ACZlZxqwkpeE7vu4R4Otdgmf5n/tzRNWCxYCASDzDDNMmXiee2rQNzvvEMVaWVeJz4lGTLkj8yHXF4zfOJZcFnhkzs5k54hixWOpgpYNZ2dSIJ4njqqZTvpDzWOW8xVmr1ljrnvyFkYK+vMR1mkNIYQGLkCBCQQ0VVGEjQatOioUM7Sd9/IOuXyKXQq4KGDnmsQENsusH/4Pf3VrFiXEvKZIEul8c52MYCO0CzbrjfB87TvMECD4DV3rbv9EApj9Jr7e1+BHQuw1cXLc1ZQ+43AEGngzZlF0pSFMoFoH3M/qmPNB/C4RXvd5a+zh9ALLUVfoGODgERkqUvebz7p7O3v490+rvB0OKcpQIXSxQAAAABmJLR0QA/wD/AP+gvaeTAAAACXBIWXMAAC4jAAAuIwF4pT92AAAAB3RJTUUH5QoNFxsmUNUbfwAAABl0RVh0Q29tbWVudABDcmVhdGVkIHdpdGggR0lNUFeBDhcAAAC/SURBVEjH7ZbRCYAwDERNhnAoB3Yol9AvoZTW3OVa/bEgCJq8S3JEl+U/Lx27b9btPHsvHbvZJ+AZIqAkLVGqADq4FpEVkFatCghnHCUs4xg4Za5e4gzcRhmLhdvIuTJwU42VhafNhcAlcHauEdxUY/XgElit7gnuKLhVTf0M/dCEM2bmylbtUXvRncxW7WVgeSGLg2ktPONaQBbSE+mMqVC3IyJ91KqUWt0y06yfPW9Vo5hGNtdr4LKdM1r7nwtUcL9o+gyz3QAAAABJRU5ErkJggg==;" parent="1" vertex="1">
          <mxGeometry x="340" y="240" width="20" height="20" as="geometry" />
        </mxCell>
        <mxCell id="z_o5YdLHFXMN_9M8HcGV-275" value="" style="shape=image;verticalLabelPosition=bottom;labelBackgroundColor=#ffffff;verticalAlign=top;aspect=fixed;imageAspect=0;image=data:image/png,iVBORw0KGgoAAAANSUhEUgAAAB4AAAAeCAYAAAA7MK6iAAABg2lDQ1BJQ0MgcHJvZmlsZQAAKJF9kT1Iw0AcxV9TpVJaBO0g4pChOlkQFXHUKhShQqgVWnUwufQLmhiSFBdHwbXg4Mdi1cHFWVcHV0EQ/ABxc3NSdJES/5cUWsR4cNyPd/ced+8AoVFlmtU1Bmi6bWZSSTGXXxFDrwgjij4ACZlZxqwkpeE7vu4R4Otdgmf5n/tzRNWCxYCASDzDDNMmXiee2rQNzvvEMVaWVeJz4lGTLkj8yHXF4zfOJZcFnhkzs5k54hixWOpgpYNZ2dSIJ4njqqZTvpDzWOW8xVmr1ljrnvyFkYK+vMR1mkNIYQGLkCBCQQ0VVGEjQatOioUM7Sd9/IOuXyKXQq4KGDnmsQENsusH/4Pf3VrFiXEvKZIEul8c52MYCO0CzbrjfB87TvMECD4DV3rbv9EApj9Jr7e1+BHQuw1cXLc1ZQ+43AEGngzZlF0pSFMoFoH3M/qmPNB/C4RXvd5a+zh9ALLUVfoGODgERkqUvebz7p7O3v490+rvB0OKcpQIXSxQAAAABmJLR0QA/wD/AP+gvaeTAAAACXBIWXMAAC4jAAAuIwF4pT92AAAAB3RJTUUH5QoNFxsmUNUbfwAAABl0RVh0Q29tbWVudABDcmVhdGVkIHdpdGggR0lNUFeBDhcAAAC/SURBVEjH7ZbRCYAwDERNhnAoB3Yol9AvoZTW3OVa/bEgCJq8S3JEl+U/Lx27b9btPHsvHbvZJ+AZIqAkLVGqADq4FpEVkFatCghnHCUs4xg4Za5e4gzcRhmLhdvIuTJwU42VhafNhcAlcHauEdxUY/XgElit7gnuKLhVTf0M/dCEM2bmylbtUXvRncxW7WVgeSGLg2ktPONaQBbSE+mMqVC3IyJ91KqUWt0y06yfPW9Vo5hGNtdr4LKdM1r7nwtUcL9o+gyz3QAAAABJRU5ErkJggg==;" parent="1" vertex="1">
          <mxGeometry x="340.5" y="562" width="20" height="20" as="geometry" />
        </mxCell>
        <mxCell id="z_o5YdLHFXMN_9M8HcGV-276" value="" style="shape=image;verticalLabelPosition=bottom;labelBackgroundColor=#ffffff;verticalAlign=top;aspect=fixed;imageAspect=0;image=data:image/png,iVBORw0KGgoAAAANSUhEUgAAAB4AAAAeCAYAAAA7MK6iAAABg2lDQ1BJQ0MgcHJvZmlsZQAAKJF9kT1Iw0AcxV9TpVJaBO0g4pChOlkQFXHUKhShQqgVWnUwufQLmhiSFBdHwbXg4Mdi1cHFWVcHV0EQ/ABxc3NSdJES/5cUWsR4cNyPd/ced+8AoVFlmtU1Bmi6bWZSSTGXXxFDrwgjij4ACZlZxqwkpeE7vu4R4Otdgmf5n/tzRNWCxYCASDzDDNMmXiee2rQNzvvEMVaWVeJz4lGTLkj8yHXF4zfOJZcFnhkzs5k54hixWOpgpYNZ2dSIJ4njqqZTvpDzWOW8xVmr1ljrnvyFkYK+vMR1mkNIYQGLkCBCQQ0VVGEjQatOioUM7Sd9/IOuXyKXQq4KGDnmsQENsusH/4Pf3VrFiXEvKZIEul8c52MYCO0CzbrjfB87TvMECD4DV3rbv9EApj9Jr7e1+BHQuw1cXLc1ZQ+43AEGngzZlF0pSFMoFoH3M/qmPNB/C4RXvd5a+zh9ALLUVfoGODgERkqUvebz7p7O3v490+rvB0OKcpQIXSxQAAAABmJLR0QA/wD/AP+gvaeTAAAACXBIWXMAAC4jAAAuIwF4pT92AAAAB3RJTUUH5QoNFxsmUNUbfwAAABl0RVh0Q29tbWVudABDcmVhdGVkIHdpdGggR0lNUFeBDhcAAAC/SURBVEjH7ZbRCYAwDERNhnAoB3Yol9AvoZTW3OVa/bEgCJq8S3JEl+U/Lx27b9btPHsvHbvZJ+AZIqAkLVGqADq4FpEVkFatCghnHCUs4xg4Za5e4gzcRhmLhdvIuTJwU42VhafNhcAlcHauEdxUY/XgElit7gnuKLhVTf0M/dCEM2bmylbtUXvRncxW7WVgeSGLg2ktPONaQBbSE+mMqVC3IyJ91KqUWt0y06yfPW9Vo5hGNtdr4LKdM1r7nwtUcL9o+gyz3QAAAABJRU5ErkJggg==;" parent="1" vertex="1">
          <mxGeometry x="700" y="560" width="20" height="20" as="geometry" />
        </mxCell>
        <mxCell id="z_o5YdLHFXMN_9M8HcGV-277" value="" style="shape=image;verticalLabelPosition=bottom;labelBackgroundColor=#ffffff;verticalAlign=top;aspect=fixed;imageAspect=0;image=data:image/png,iVBORw0KGgoAAAANSUhEUgAAAB4AAAAeCAYAAAA7MK6iAAABg2lDQ1BJQ0MgcHJvZmlsZQAAKJF9kT1Iw0AcxV9TpVJaBO0g4pChOlkQFXHUKhShQqgVWnUwufQLmhiSFBdHwbXg4Mdi1cHFWVcHV0EQ/ABxc3NSdJES/5cUWsR4cNyPd/ced+8AoVFlmtU1Bmi6bWZSSTGXXxFDrwgjij4ACZlZxqwkpeE7vu4R4Otdgmf5n/tzRNWCxYCASDzDDNMmXiee2rQNzvvEMVaWVeJz4lGTLkj8yHXF4zfOJZcFnhkzs5k54hixWOpgpYNZ2dSIJ4njqqZTvpDzWOW8xVmr1ljrnvyFkYK+vMR1mkNIYQGLkCBCQQ0VVGEjQatOioUM7Sd9/IOuXyKXQq4KGDnmsQENsusH/4Pf3VrFiXEvKZIEul8c52MYCO0CzbrjfB87TvMECD4DV3rbv9EApj9Jr7e1+BHQuw1cXLc1ZQ+43AEGngzZlF0pSFMoFoH3M/qmPNB/C4RXvd5a+zh9ALLUVfoGODgERkqUvebz7p7O3v490+rvB0OKcpQIXSxQAAAABmJLR0QA/wD/AP+gvaeTAAAACXBIWXMAAC4jAAAuIwF4pT92AAAAB3RJTUUH5QoNFxsmUNUbfwAAABl0RVh0Q29tbWVudABDcmVhdGVkIHdpdGggR0lNUFeBDhcAAAC/SURBVEjH7ZbRCYAwDERNhnAoB3Yol9AvoZTW3OVa/bEgCJq8S3JEl+U/Lx27b9btPHsvHbvZJ+AZIqAkLVGqADq4FpEVkFatCghnHCUs4xg4Za5e4gzcRhmLhdvIuTJwU42VhafNhcAlcHauEdxUY/XgElit7gnuKLhVTf0M/dCEM2bmylbtUXvRncxW7WVgeSGLg2ktPONaQBbSE+mMqVC3IyJ91KqUWt0y06yfPW9Vo5hGNtdr4LKdM1r7nwtUcL9o+gyz3QAAAABJRU5ErkJggg==;" parent="1" vertex="1">
          <mxGeometry x="340" y="880" width="20" height="20" as="geometry" />
        </mxCell>
        <mxCell id="z_o5YdLHFXMN_9M8HcGV-278" value="" style="shape=image;verticalLabelPosition=bottom;labelBackgroundColor=#ffffff;verticalAlign=top;aspect=fixed;imageAspect=0;image=data:image/png,iVBORw0KGgoAAAANSUhEUgAAAB4AAAAeCAYAAAA7MK6iAAABg2lDQ1BJQ0MgcHJvZmlsZQAAKJF9kT1Iw0AcxV9TpVJaBO0g4pChOlkQFXHUKhShQqgVWnUwufQLmhiSFBdHwbXg4Mdi1cHFWVcHV0EQ/ABxc3NSdJES/5cUWsR4cNyPd/ced+8AoVFlmtU1Bmi6bWZSSTGXXxFDrwgjij4ACZlZxqwkpeE7vu4R4Otdgmf5n/tzRNWCxYCASDzDDNMmXiee2rQNzvvEMVaWVeJz4lGTLkj8yHXF4zfOJZcFnhkzs5k54hixWOpgpYNZ2dSIJ4njqqZTvpDzWOW8xVmr1ljrnvyFkYK+vMR1mkNIYQGLkCBCQQ0VVGEjQatOioUM7Sd9/IOuXyKXQq4KGDnmsQENsusH/4Pf3VrFiXEvKZIEul8c52MYCO0CzbrjfB87TvMECD4DV3rbv9EApj9Jr7e1+BHQuw1cXLc1ZQ+43AEGngzZlF0pSFMoFoH3M/qmPNB/C4RXvd5a+zh9ALLUVfoGODgERkqUvebz7p7O3v490+rvB0OKcpQIXSxQAAAABmJLR0QA/wD/AP+gvaeTAAAACXBIWXMAAC4jAAAuIwF4pT92AAAAB3RJTUUH5QoNFxsmUNUbfwAAABl0RVh0Q29tbWVudABDcmVhdGVkIHdpdGggR0lNUFeBDhcAAAC/SURBVEjH7ZbRCYAwDERNhnAoB3Yol9AvoZTW3OVa/bEgCJq8S3JEl+U/Lx27b9btPHsvHbvZJ+AZIqAkLVGqADq4FpEVkFatCghnHCUs4xg4Za5e4gzcRhmLhdvIuTJwU42VhafNhcAlcHauEdxUY/XgElit7gnuKLhVTf0M/dCEM2bmylbtUXvRncxW7WVgeSGLg2ktPONaQBbSE+mMqVC3IyJ91KqUWt0y06yfPW9Vo5hGNtdr4LKdM1r7nwtUcL9o+gyz3QAAAABJRU5ErkJggg==;" parent="1" vertex="1">
          <mxGeometry x="340.5" y="1200" width="20" height="20" as="geometry" />
        </mxCell>
        <mxCell id="z_o5YdLHFXMN_9M8HcGV-279" value="" style="shape=image;verticalLabelPosition=bottom;labelBackgroundColor=#ffffff;verticalAlign=top;aspect=fixed;imageAspect=0;image=data:image/png,iVBORw0KGgoAAAANSUhEUgAAAB4AAAAeCAYAAAA7MK6iAAABg2lDQ1BJQ0MgcHJvZmlsZQAAKJF9kT1Iw0AcxV9TpVJaBO0g4pChOlkQFXHUKhShQqgVWnUwufQLmhiSFBdHwbXg4Mdi1cHFWVcHV0EQ/ABxc3NSdJES/5cUWsR4cNyPd/ced+8AoVFlmtU1Bmi6bWZSSTGXXxFDrwgjij4ACZlZxqwkpeE7vu4R4Otdgmf5n/tzRNWCxYCASDzDDNMmXiee2rQNzvvEMVaWVeJz4lGTLkj8yHXF4zfOJZcFnhkzs5k54hixWOpgpYNZ2dSIJ4njqqZTvpDzWOW8xVmr1ljrnvyFkYK+vMR1mkNIYQGLkCBCQQ0VVGEjQatOioUM7Sd9/IOuXyKXQq4KGDnmsQENsusH/4Pf3VrFiXEvKZIEul8c52MYCO0CzbrjfB87TvMECD4DV3rbv9EApj9Jr7e1+BHQuw1cXLc1ZQ+43AEGngzZlF0pSFMoFoH3M/qmPNB/C4RXvd5a+zh9ALLUVfoGODgERkqUvebz7p7O3v490+rvB0OKcpQIXSxQAAAABmJLR0QA/wD/AP+gvaeTAAAACXBIWXMAAC4jAAAuIwF4pT92AAAAB3RJTUUH5QoNFxsmUNUbfwAAABl0RVh0Q29tbWVudABDcmVhdGVkIHdpdGggR0lNUFeBDhcAAAC/SURBVEjH7ZbRCYAwDERNhnAoB3Yol9AvoZTW3OVa/bEgCJq8S3JEl+U/Lx27b9btPHsvHbvZJ+AZIqAkLVGqADq4FpEVkFatCghnHCUs4xg4Za5e4gzcRhmLhdvIuTJwU42VhafNhcAlcHauEdxUY/XgElit7gnuKLhVTf0M/dCEM2bmylbtUXvRncxW7WVgeSGLg2ktPONaQBbSE+mMqVC3IyJ91KqUWt0y06yfPW9Vo5hGNtdr4LKdM1r7nwtUcL9o+gyz3QAAAABJRU5ErkJggg==;" parent="1" vertex="1">
          <mxGeometry x="700" y="1200" width="20" height="20" as="geometry" />
        </mxCell>
        <mxCell id="z_o5YdLHFXMN_9M8HcGV-280" value="" style="shape=image;verticalLabelPosition=bottom;labelBackgroundColor=#ffffff;verticalAlign=top;aspect=fixed;imageAspect=0;image=data:image/png,iVBORw0KGgoAAAANSUhEUgAAAB4AAAAeCAYAAAA7MK6iAAABg2lDQ1BJQ0MgcHJvZmlsZQAAKJF9kT1Iw0AcxV9TpVJaBO0g4pChOlkQFXHUKhShQqgVWnUwufQLmhiSFBdHwbXg4Mdi1cHFWVcHV0EQ/ABxc3NSdJES/5cUWsR4cNyPd/ced+8AoVFlmtU1Bmi6bWZSSTGXXxFDrwgjij4ACZlZxqwkpeE7vu4R4Otdgmf5n/tzRNWCxYCASDzDDNMmXiee2rQNzvvEMVaWVeJz4lGTLkj8yHXF4zfOJZcFnhkzs5k54hixWOpgpYNZ2dSIJ4njqqZTvpDzWOW8xVmr1ljrnvyFkYK+vMR1mkNIYQGLkCBCQQ0VVGEjQatOioUM7Sd9/IOuXyKXQq4KGDnmsQENsusH/4Pf3VrFiXEvKZIEul8c52MYCO0CzbrjfB87TvMECD4DV3rbv9EApj9Jr7e1+BHQuw1cXLc1ZQ+43AEGngzZlF0pSFMoFoH3M/qmPNB/C4RXvd5a+zh9ALLUVfoGODgERkqUvebz7p7O3v490+rvB0OKcpQIXSxQAAAABmJLR0QA/wD/AP+gvaeTAAAACXBIWXMAAC4jAAAuIwF4pT92AAAAB3RJTUUH5QoNFxsmUNUbfwAAABl0RVh0Q29tbWVudABDcmVhdGVkIHdpdGggR0lNUFeBDhcAAAC/SURBVEjH7ZbRCYAwDERNhnAoB3Yol9AvoZTW3OVa/bEgCJq8S3JEl+U/Lx27b9btPHsvHbvZJ+AZIqAkLVGqADq4FpEVkFatCghnHCUs4xg4Za5e4gzcRhmLhdvIuTJwU42VhafNhcAlcHauEdxUY/XgElit7gnuKLhVTf0M/dCEM2bmylbtUXvRncxW7WVgeSGLg2ktPONaQBbSE+mMqVC3IyJ91KqUWt0y06yfPW9Vo5hGNtdr4LKdM1r7nwtUcL9o+gyz3QAAAABJRU5ErkJggg==;" parent="1" vertex="1">
          <mxGeometry x="700" y="1520" width="20" height="20" as="geometry" />
        </mxCell>
        <mxCell id="z_o5YdLHFXMN_9M8HcGV-281" value="" style="shape=image;verticalLabelPosition=bottom;labelBackgroundColor=#ffffff;verticalAlign=top;aspect=fixed;imageAspect=0;image=data:image/png,iVBORw0KGgoAAAANSUhEUgAAAB4AAAAeCAYAAAA7MK6iAAABg2lDQ1BJQ0MgcHJvZmlsZQAAKJF9kT1Iw0AcxV9TpVJaBO0g4pChOlkQFXHUKhShQqgVWnUwufQLmhiSFBdHwbXg4Mdi1cHFWVcHV0EQ/ABxc3NSdJES/5cUWsR4cNyPd/ced+8AoVFlmtU1Bmi6bWZSSTGXXxFDrwgjij4ACZlZxqwkpeE7vu4R4Otdgmf5n/tzRNWCxYCASDzDDNMmXiee2rQNzvvEMVaWVeJz4lGTLkj8yHXF4zfOJZcFnhkzs5k54hixWOpgpYNZ2dSIJ4njqqZTvpDzWOW8xVmr1ljrnvyFkYK+vMR1mkNIYQGLkCBCQQ0VVGEjQatOioUM7Sd9/IOuXyKXQq4KGDnmsQENsusH/4Pf3VrFiXEvKZIEul8c52MYCO0CzbrjfB87TvMECD4DV3rbv9EApj9Jr7e1+BHQuw1cXLc1ZQ+43AEGngzZlF0pSFMoFoH3M/qmPNB/C4RXvd5a+zh9ALLUVfoGODgERkqUvebz7p7O3v490+rvB0OKcpQIXSxQAAAABmJLR0QA/wD/AP+gvaeTAAAACXBIWXMAAC4jAAAuIwF4pT92AAAAB3RJTUUH5QoNFxsmUNUbfwAAABl0RVh0Q29tbWVudABDcmVhdGVkIHdpdGggR0lNUFeBDhcAAAC/SURBVEjH7ZbRCYAwDERNhnAoB3Yol9AvoZTW3OVa/bEgCJq8S3JEl+U/Lx27b9btPHsvHbvZJ+AZIqAkLVGqADq4FpEVkFatCghnHCUs4xg4Za5e4gzcRhmLhdvIuTJwU42VhafNhcAlcHauEdxUY/XgElit7gnuKLhVTf0M/dCEM2bmylbtUXvRncxW7WVgeSGLg2ktPONaQBbSE+mMqVC3IyJ91KqUWt0y06yfPW9Vo5hGNtdr4LKdM1r7nwtUcL9o+gyz3QAAAABJRU5ErkJggg==;" parent="1" vertex="1">
          <mxGeometry x="341" y="1520" width="20" height="20" as="geometry" />
        </mxCell>
        <mxCell id="z_o5YdLHFXMN_9M8HcGV-282" value="" style="shape=image;verticalLabelPosition=bottom;labelBackgroundColor=#ffffff;verticalAlign=top;aspect=fixed;imageAspect=0;image=data:image/png,iVBORw0KGgoAAAANSUhEUgAAAB4AAAAeCAYAAAA7MK6iAAABg2lDQ1BJQ0MgcHJvZmlsZQAAKJF9kT1Iw0AcxV9TpVJaBO0g4pChOlkQFXHUKhShQqgVWnUwufQLmhiSFBdHwbXg4Mdi1cHFWVcHV0EQ/ABxc3NSdJES/5cUWsR4cNyPd/ced+8AoVFlmtU1Bmi6bWZSSTGXXxFDrwgjij4ACZlZxqwkpeE7vu4R4Otdgmf5n/tzRNWCxYCASDzDDNMmXiee2rQNzvvEMVaWVeJz4lGTLkj8yHXF4zfOJZcFnhkzs5k54hixWOpgpYNZ2dSIJ4njqqZTvpDzWOW8xVmr1ljrnvyFkYK+vMR1mkNIYQGLkCBCQQ0VVGEjQatOioUM7Sd9/IOuXyKXQq4KGDnmsQENsusH/4Pf3VrFiXEvKZIEul8c52MYCO0CzbrjfB87TvMECD4DV3rbv9EApj9Jr7e1+BHQuw1cXLc1ZQ+43AEGngzZlF0pSFMoFoH3M/qmPNB/C4RXvd5a+zh9ALLUVfoGODgERkqUvebz7p7O3v490+rvB0OKcpQIXSxQAAAABmJLR0QA/wD/AP+gvaeTAAAACXBIWXMAAC4jAAAuIwF4pT92AAAAB3RJTUUH5QoNFxsmUNUbfwAAABl0RVh0Q29tbWVudABDcmVhdGVkIHdpdGggR0lNUFeBDhcAAAC/SURBVEjH7ZbRCYAwDERNhnAoB3Yol9AvoZTW3OVa/bEgCJq8S3JEl+U/Lx27b9btPHsvHbvZJ+AZIqAkLVGqADq4FpEVkFatCghnHCUs4xg4Za5e4gzcRhmLhdvIuTJwU42VhafNhcAlcHauEdxUY/XgElit7gnuKLhVTf0M/dCEM2bmylbtUXvRncxW7WVgeSGLg2ktPONaQBbSE+mMqVC3IyJ91KqUWt0y06yfPW9Vo5hGNtdr4LKdM1r7nwtUcL9o+gyz3QAAAABJRU5ErkJggg==;" parent="1" vertex="1">
          <mxGeometry x="340" y="1840" width="20" height="20" as="geometry" />
        </mxCell>
        <mxCell id="z_o5YdLHFXMN_9M8HcGV-283" value="Tue&lt;br&gt;14:50" style="text;html=1;strokeColor=none;fillColor=none;align=center;verticalAlign=middle;whiteSpace=wrap;rounded=0;fontColor=#FFFFFF;fontSize=12;" parent="1" vertex="1">
          <mxGeometry x="50" y="1640" width="50" height="30" as="geometry" />
        </mxCell>
        <mxCell id="z_o5YdLHFXMN_9M8HcGV-284" value="" style="shape=image;verticalLabelPosition=bottom;labelBackgroundColor=#ffffff;verticalAlign=top;aspect=fixed;imageAspect=0;image=data:image/png,iVBORw0KGgoAAAANSUhEUgAAAB4AAAAeCAYAAAA7MK6iAAABg2lDQ1BJQ0MgcHJvZmlsZQAAKJF9kT1Iw0AcxV9TpVJaBO0g4pChOlkQFXHUKhShQqgVWnUwufQLmhiSFBdHwbXg4Mdi1cHFWVcHV0EQ/ABxc3NSdJES/5cUWsR4cNyPd/ced+8AoVFlmtU1Bmi6bWZSSTGXXxFDrwgjij4ACZlZxqwkpeE7vu4R4Otdgmf5n/tzRNWCxYCASDzDDNMmXiee2rQNzvvEMVaWVeJz4lGTLkj8yHXF4zfOJZcFnhkzs5k54hixWOpgpYNZ2dSIJ4njqqZTvpDzWOW8xVmr1ljrnvyFkYK+vMR1mkNIYQGLkCBCQQ0VVGEjQatOioUM7Sd9/IOuXyKXQq4KGDnmsQENsusH/4Pf3VrFiXEvKZIEul8c52MYCO0CzbrjfB87TvMECD4DV3rbv9EApj9Jr7e1+BHQuw1cXLc1ZQ+43AEGngzZlF0pSFMoFoH3M/qmPNB/C4RXvd5a+zh9ALLUVfoGODgERkqUvebz7p7O3v490+rvB0OKcpQIXSxQAAAABmJLR0QA/wD/AP+gvaeTAAAACXBIWXMAAC4jAAAuIwF4pT92AAAAB3RJTUUH5QoNFxwFvfP8ygAAABl0RVh0Q29tbWVudABDcmVhdGVkIHdpdGggR0lNUFeBDhcAAACUSURBVEjH1ZdBEoAwCAOR8Xk+1//VKyeBJohwFbKm05Eo0lRHpnndsl7FrpxeCOhBM31SJQS9gDcYPQEqNCMahtMFI71UMadfpbtQB9kZHeV2d8bOtTmeCUa+y9pxPyCwXYE7cMgxAoePGnUu6AKP7GD7/KRlKCT2UGLLmO1U6ZqeQkq0GHAoaX4eb6sD/b9/YSrqAccOkMluodH6AAAAAElFTkSuQmCC;" parent="1" vertex="1">
          <mxGeometry x="40" y="1640" width="20" height="20" as="geometry" />
        </mxCell>
        <mxCell id="z_o5YdLHFXMN_9M8HcGV-286" value="Tue&lt;br&gt;14:50" style="text;html=1;strokeColor=none;fillColor=none;align=center;verticalAlign=middle;whiteSpace=wrap;rounded=0;fontColor=#FFFFFF;fontSize=12;" parent="1" vertex="1">
          <mxGeometry x="414" y="1640" width="50" height="30" as="geometry" />
        </mxCell>
        <mxCell id="z_o5YdLHFXMN_9M8HcGV-287" value="Tue&lt;br&gt;14:50" style="text;html=1;strokeColor=none;fillColor=none;align=center;verticalAlign=middle;whiteSpace=wrap;rounded=0;fontColor=#FFFFFF;fontSize=12;" parent="1" vertex="1">
          <mxGeometry x="51" y="1320" width="50" height="30" as="geometry" />
        </mxCell>
        <mxCell id="z_o5YdLHFXMN_9M8HcGV-288" value="" style="shape=image;verticalLabelPosition=bottom;labelBackgroundColor=#ffffff;verticalAlign=top;aspect=fixed;imageAspect=0;image=data:image/png,iVBORw0KGgoAAAANSUhEUgAAAB4AAAAeCAYAAAA7MK6iAAABg2lDQ1BJQ0MgcHJvZmlsZQAAKJF9kT1Iw0AcxV9TpVJaBO0g4pChOlkQFXHUKhShQqgVWnUwufQLmhiSFBdHwbXg4Mdi1cHFWVcHV0EQ/ABxc3NSdJES/5cUWsR4cNyPd/ced+8AoVFlmtU1Bmi6bWZSSTGXXxFDrwgjij4ACZlZxqwkpeE7vu4R4Otdgmf5n/tzRNWCxYCASDzDDNMmXiee2rQNzvvEMVaWVeJz4lGTLkj8yHXF4zfOJZcFnhkzs5k54hixWOpgpYNZ2dSIJ4njqqZTvpDzWOW8xVmr1ljrnvyFkYK+vMR1mkNIYQGLkCBCQQ0VVGEjQatOioUM7Sd9/IOuXyKXQq4KGDnmsQENsusH/4Pf3VrFiXEvKZIEul8c52MYCO0CzbrjfB87TvMECD4DV3rbv9EApj9Jr7e1+BHQuw1cXLc1ZQ+43AEGngzZlF0pSFMoFoH3M/qmPNB/C4RXvd5a+zh9ALLUVfoGODgERkqUvebz7p7O3v490+rvB0OKcpQIXSxQAAAABmJLR0QA/wD/AP+gvaeTAAAACXBIWXMAAC4jAAAuIwF4pT92AAAAB3RJTUUH5QoNFxwFvfP8ygAAABl0RVh0Q29tbWVudABDcmVhdGVkIHdpdGggR0lNUFeBDhcAAACUSURBVEjH1ZdBEoAwCAOR8Xk+1//VKyeBJohwFbKm05Eo0lRHpnndsl7FrpxeCOhBM31SJQS9gDcYPQEqNCMahtMFI71UMadfpbtQB9kZHeV2d8bOtTmeCUa+y9pxPyCwXYE7cMgxAoePGnUu6AKP7GD7/KRlKCT2UGLLmO1U6ZqeQkq0GHAoaX4eb6sD/b9/YSrqAccOkMluodH6AAAAAElFTkSuQmCC;" parent="1" vertex="1">
          <mxGeometry x="41" y="1320" width="20" height="20" as="geometry" />
        </mxCell>
        <mxCell id="z_o5YdLHFXMN_9M8HcGV-289" value="Tue&lt;br&gt;14:50" style="text;html=1;strokeColor=none;fillColor=none;align=center;verticalAlign=middle;whiteSpace=wrap;rounded=0;fontColor=#FFFFFF;fontSize=12;" parent="1" vertex="1">
          <mxGeometry x="411" y="1320" width="50" height="30" as="geometry" />
        </mxCell>
        <mxCell id="z_o5YdLHFXMN_9M8HcGV-290" value="" style="shape=image;verticalLabelPosition=bottom;labelBackgroundColor=#ffffff;verticalAlign=top;aspect=fixed;imageAspect=0;image=data:image/png,iVBORw0KGgoAAAANSUhEUgAAAB4AAAAeCAYAAAA7MK6iAAABg2lDQ1BJQ0MgcHJvZmlsZQAAKJF9kT1Iw0AcxV9TpVJaBO0g4pChOlkQFXHUKhShQqgVWnUwufQLmhiSFBdHwbXg4Mdi1cHFWVcHV0EQ/ABxc3NSdJES/5cUWsR4cNyPd/ced+8AoVFlmtU1Bmi6bWZSSTGXXxFDrwgjij4ACZlZxqwkpeE7vu4R4Otdgmf5n/tzRNWCxYCASDzDDNMmXiee2rQNzvvEMVaWVeJz4lGTLkj8yHXF4zfOJZcFnhkzs5k54hixWOpgpYNZ2dSIJ4njqqZTvpDzWOW8xVmr1ljrnvyFkYK+vMR1mkNIYQGLkCBCQQ0VVGEjQatOioUM7Sd9/IOuXyKXQq4KGDnmsQENsusH/4Pf3VrFiXEvKZIEul8c52MYCO0CzbrjfB87TvMECD4DV3rbv9EApj9Jr7e1+BHQuw1cXLc1ZQ+43AEGngzZlF0pSFMoFoH3M/qmPNB/C4RXvd5a+zh9ALLUVfoGODgERkqUvebz7p7O3v490+rvB0OKcpQIXSxQAAAABmJLR0QA/wD/AP+gvaeTAAAACXBIWXMAAC4jAAAuIwF4pT92AAAAB3RJTUUH5QoNFxwFvfP8ygAAABl0RVh0Q29tbWVudABDcmVhdGVkIHdpdGggR0lNUFeBDhcAAACUSURBVEjH1ZdBEoAwCAOR8Xk+1//VKyeBJohwFbKm05Eo0lRHpnndsl7FrpxeCOhBM31SJQS9gDcYPQEqNCMahtMFI71UMadfpbtQB9kZHeV2d8bOtTmeCUa+y9pxPyCwXYE7cMgxAoePGnUu6AKP7GD7/KRlKCT2UGLLmO1U6ZqeQkq0GHAoaX4eb6sD/b9/YSrqAccOkMluodH6AAAAAElFTkSuQmCC;" parent="1" vertex="1">
          <mxGeometry x="401" y="1320" width="20" height="20" as="geometry" />
        </mxCell>
        <mxCell id="z_o5YdLHFXMN_9M8HcGV-291" value="Tue&lt;br&gt;14:50" style="text;html=1;strokeColor=none;fillColor=none;align=center;verticalAlign=middle;whiteSpace=wrap;rounded=0;fontColor=#FFFFFF;fontSize=12;" parent="1" vertex="1">
          <mxGeometry x="410.5" y="1000" width="50" height="30" as="geometry" />
        </mxCell>
        <mxCell id="z_o5YdLHFXMN_9M8HcGV-292" value="" style="shape=image;verticalLabelPosition=bottom;labelBackgroundColor=#ffffff;verticalAlign=top;aspect=fixed;imageAspect=0;image=data:image/png,iVBORw0KGgoAAAANSUhEUgAAAB4AAAAeCAYAAAA7MK6iAAABg2lDQ1BJQ0MgcHJvZmlsZQAAKJF9kT1Iw0AcxV9TpVJaBO0g4pChOlkQFXHUKhShQqgVWnUwufQLmhiSFBdHwbXg4Mdi1cHFWVcHV0EQ/ABxc3NSdJES/5cUWsR4cNyPd/ced+8AoVFlmtU1Bmi6bWZSSTGXXxFDrwgjij4ACZlZxqwkpeE7vu4R4Otdgmf5n/tzRNWCxYCASDzDDNMmXiee2rQNzvvEMVaWVeJz4lGTLkj8yHXF4zfOJZcFnhkzs5k54hixWOpgpYNZ2dSIJ4njqqZTvpDzWOW8xVmr1ljrnvyFkYK+vMR1mkNIYQGLkCBCQQ0VVGEjQatOioUM7Sd9/IOuXyKXQq4KGDnmsQENsusH/4Pf3VrFiXEvKZIEul8c52MYCO0CzbrjfB87TvMECD4DV3rbv9EApj9Jr7e1+BHQuw1cXLc1ZQ+43AEGngzZlF0pSFMoFoH3M/qmPNB/C4RXvd5a+zh9ALLUVfoGODgERkqUvebz7p7O3v490+rvB0OKcpQIXSxQAAAABmJLR0QA/wD/AP+gvaeTAAAACXBIWXMAAC4jAAAuIwF4pT92AAAAB3RJTUUH5QoNFxwFvfP8ygAAABl0RVh0Q29tbWVudABDcmVhdGVkIHdpdGggR0lNUFeBDhcAAACUSURBVEjH1ZdBEoAwCAOR8Xk+1//VKyeBJohwFbKm05Eo0lRHpnndsl7FrpxeCOhBM31SJQS9gDcYPQEqNCMahtMFI71UMadfpbtQB9kZHeV2d8bOtTmeCUa+y9pxPyCwXYE7cMgxAoePGnUu6AKP7GD7/KRlKCT2UGLLmO1U6ZqeQkq0GHAoaX4eb6sD/b9/YSrqAccOkMluodH6AAAAAElFTkSuQmCC;" parent="1" vertex="1">
          <mxGeometry x="400.5" y="1000" width="20" height="20" as="geometry" />
        </mxCell>
        <mxCell id="z_o5YdLHFXMN_9M8HcGV-293" value="Tue&lt;br&gt;14:50" style="text;html=1;strokeColor=none;fillColor=none;align=center;verticalAlign=middle;whiteSpace=wrap;rounded=0;fontColor=#FFFFFF;fontSize=12;" parent="1" vertex="1">
          <mxGeometry x="50.5" y="1000" width="50" height="30" as="geometry" />
        </mxCell>
        <mxCell id="z_o5YdLHFXMN_9M8HcGV-294" value="" style="shape=image;verticalLabelPosition=bottom;labelBackgroundColor=#ffffff;verticalAlign=top;aspect=fixed;imageAspect=0;image=data:image/png,iVBORw0KGgoAAAANSUhEUgAAAB4AAAAeCAYAAAA7MK6iAAABg2lDQ1BJQ0MgcHJvZmlsZQAAKJF9kT1Iw0AcxV9TpVJaBO0g4pChOlkQFXHUKhShQqgVWnUwufQLmhiSFBdHwbXg4Mdi1cHFWVcHV0EQ/ABxc3NSdJES/5cUWsR4cNyPd/ced+8AoVFlmtU1Bmi6bWZSSTGXXxFDrwgjij4ACZlZxqwkpeE7vu4R4Otdgmf5n/tzRNWCxYCASDzDDNMmXiee2rQNzvvEMVaWVeJz4lGTLkj8yHXF4zfOJZcFnhkzs5k54hixWOpgpYNZ2dSIJ4njqqZTvpDzWOW8xVmr1ljrnvyFkYK+vMR1mkNIYQGLkCBCQQ0VVGEjQatOioUM7Sd9/IOuXyKXQq4KGDnmsQENsusH/4Pf3VrFiXEvKZIEul8c52MYCO0CzbrjfB87TvMECD4DV3rbv9EApj9Jr7e1+BHQuw1cXLc1ZQ+43AEGngzZlF0pSFMoFoH3M/qmPNB/C4RXvd5a+zh9ALLUVfoGODgERkqUvebz7p7O3v490+rvB0OKcpQIXSxQAAAABmJLR0QA/wD/AP+gvaeTAAAACXBIWXMAAC4jAAAuIwF4pT92AAAAB3RJTUUH5QoNFxwFvfP8ygAAABl0RVh0Q29tbWVudABDcmVhdGVkIHdpdGggR0lNUFeBDhcAAACUSURBVEjH1ZdBEoAwCAOR8Xk+1//VKyeBJohwFbKm05Eo0lRHpnndsl7FrpxeCOhBM31SJQS9gDcYPQEqNCMahtMFI71UMadfpbtQB9kZHeV2d8bOtTmeCUa+y9pxPyCwXYE7cMgxAoePGnUu6AKP7GD7/KRlKCT2UGLLmO1U6ZqeQkq0GHAoaX4eb6sD/b9/YSrqAccOkMluodH6AAAAAElFTkSuQmCC;" parent="1" vertex="1">
          <mxGeometry x="40.5" y="1000" width="20" height="20" as="geometry" />
        </mxCell>
        <mxCell id="z_o5YdLHFXMN_9M8HcGV-295" value="Tue&lt;br&gt;14:50" style="text;html=1;strokeColor=none;fillColor=none;align=center;verticalAlign=middle;whiteSpace=wrap;rounded=0;fontColor=#FFFFFF;fontSize=12;" parent="1" vertex="1">
          <mxGeometry x="410" y="360" width="50" height="30" as="geometry" />
        </mxCell>
        <mxCell id="z_o5YdLHFXMN_9M8HcGV-296" value="" style="shape=image;verticalLabelPosition=bottom;labelBackgroundColor=#ffffff;verticalAlign=top;aspect=fixed;imageAspect=0;image=data:image/png,iVBORw0KGgoAAAANSUhEUgAAAB4AAAAeCAYAAAA7MK6iAAABg2lDQ1BJQ0MgcHJvZmlsZQAAKJF9kT1Iw0AcxV9TpVJaBO0g4pChOlkQFXHUKhShQqgVWnUwufQLmhiSFBdHwbXg4Mdi1cHFWVcHV0EQ/ABxc3NSdJES/5cUWsR4cNyPd/ced+8AoVFlmtU1Bmi6bWZSSTGXXxFDrwgjij4ACZlZxqwkpeE7vu4R4Otdgmf5n/tzRNWCxYCASDzDDNMmXiee2rQNzvvEMVaWVeJz4lGTLkj8yHXF4zfOJZcFnhkzs5k54hixWOpgpYNZ2dSIJ4njqqZTvpDzWOW8xVmr1ljrnvyFkYK+vMR1mkNIYQGLkCBCQQ0VVGEjQatOioUM7Sd9/IOuXyKXQq4KGDnmsQENsusH/4Pf3VrFiXEvKZIEul8c52MYCO0CzbrjfB87TvMECD4DV3rbv9EApj9Jr7e1+BHQuw1cXLc1ZQ+43AEGngzZlF0pSFMoFoH3M/qmPNB/C4RXvd5a+zh9ALLUVfoGODgERkqUvebz7p7O3v490+rvB0OKcpQIXSxQAAAABmJLR0QA/wD/AP+gvaeTAAAACXBIWXMAAC4jAAAuIwF4pT92AAAAB3RJTUUH5QoNFxwFvfP8ygAAABl0RVh0Q29tbWVudABDcmVhdGVkIHdpdGggR0lNUFeBDhcAAACUSURBVEjH1ZdBEoAwCAOR8Xk+1//VKyeBJohwFbKm05Eo0lRHpnndsl7FrpxeCOhBM31SJQS9gDcYPQEqNCMahtMFI71UMadfpbtQB9kZHeV2d8bOtTmeCUa+y9pxPyCwXYE7cMgxAoePGnUu6AKP7GD7/KRlKCT2UGLLmO1U6ZqeQkq0GHAoaX4eb6sD/b9/YSrqAccOkMluodH6AAAAAElFTkSuQmCC;" parent="1" vertex="1">
          <mxGeometry x="400" y="360" width="20" height="20" as="geometry" />
        </mxCell>
        <mxCell id="z_o5YdLHFXMN_9M8HcGV-297" value="Tue&lt;br&gt;14:50" style="text;html=1;strokeColor=none;fillColor=none;align=center;verticalAlign=middle;whiteSpace=wrap;rounded=0;fontColor=#FFFFFF;fontSize=12;" parent="1" vertex="1">
          <mxGeometry x="50" y="360" width="50" height="30" as="geometry" />
        </mxCell>
        <mxCell id="z_o5YdLHFXMN_9M8HcGV-298" value="" style="shape=image;verticalLabelPosition=bottom;labelBackgroundColor=#ffffff;verticalAlign=top;aspect=fixed;imageAspect=0;image=data:image/png,iVBORw0KGgoAAAANSUhEUgAAAB4AAAAeCAYAAAA7MK6iAAABg2lDQ1BJQ0MgcHJvZmlsZQAAKJF9kT1Iw0AcxV9TpVJaBO0g4pChOlkQFXHUKhShQqgVWnUwufQLmhiSFBdHwbXg4Mdi1cHFWVcHV0EQ/ABxc3NSdJES/5cUWsR4cNyPd/ced+8AoVFlmtU1Bmi6bWZSSTGXXxFDrwgjij4ACZlZxqwkpeE7vu4R4Otdgmf5n/tzRNWCxYCASDzDDNMmXiee2rQNzvvEMVaWVeJz4lGTLkj8yHXF4zfOJZcFnhkzs5k54hixWOpgpYNZ2dSIJ4njqqZTvpDzWOW8xVmr1ljrnvyFkYK+vMR1mkNIYQGLkCBCQQ0VVGEjQatOioUM7Sd9/IOuXyKXQq4KGDnmsQENsusH/4Pf3VrFiXEvKZIEul8c52MYCO0CzbrjfB87TvMECD4DV3rbv9EApj9Jr7e1+BHQuw1cXLc1ZQ+43AEGngzZlF0pSFMoFoH3M/qmPNB/C4RXvd5a+zh9ALLUVfoGODgERkqUvebz7p7O3v490+rvB0OKcpQIXSxQAAAABmJLR0QA/wD/AP+gvaeTAAAACXBIWXMAAC4jAAAuIwF4pT92AAAAB3RJTUUH5QoNFxwFvfP8ygAAABl0RVh0Q29tbWVudABDcmVhdGVkIHdpdGggR0lNUFeBDhcAAACUSURBVEjH1ZdBEoAwCAOR8Xk+1//VKyeBJohwFbKm05Eo0lRHpnndsl7FrpxeCOhBM31SJQS9gDcYPQEqNCMahtMFI71UMadfpbtQB9kZHeV2d8bOtTmeCUa+y9pxPyCwXYE7cMgxAoePGnUu6AKP7GD7/KRlKCT2UGLLmO1U6ZqeQkq0GHAoaX4eb6sD/b9/YSrqAccOkMluodH6AAAAAElFTkSuQmCC;" parent="1" vertex="1">
          <mxGeometry x="40" y="360" width="20" height="20" as="geometry" />
        </mxCell>
        <mxCell id="z_o5YdLHFXMN_9M8HcGV-299" value="Tue&lt;br&gt;14:50" style="text;html=1;strokeColor=none;fillColor=none;align=center;verticalAlign=middle;whiteSpace=wrap;rounded=0;fontColor=#FFFFFF;fontSize=12;" parent="1" vertex="1">
          <mxGeometry x="411" y="40" width="50" height="30" as="geometry" />
        </mxCell>
        <mxCell id="z_o5YdLHFXMN_9M8HcGV-300" value="" style="shape=image;verticalLabelPosition=bottom;labelBackgroundColor=#ffffff;verticalAlign=top;aspect=fixed;imageAspect=0;image=data:image/png,iVBORw0KGgoAAAANSUhEUgAAAB4AAAAeCAYAAAA7MK6iAAABg2lDQ1BJQ0MgcHJvZmlsZQAAKJF9kT1Iw0AcxV9TpVJaBO0g4pChOlkQFXHUKhShQqgVWnUwufQLmhiSFBdHwbXg4Mdi1cHFWVcHV0EQ/ABxc3NSdJES/5cUWsR4cNyPd/ced+8AoVFlmtU1Bmi6bWZSSTGXXxFDrwgjij4ACZlZxqwkpeE7vu4R4Otdgmf5n/tzRNWCxYCASDzDDNMmXiee2rQNzvvEMVaWVeJz4lGTLkj8yHXF4zfOJZcFnhkzs5k54hixWOpgpYNZ2dSIJ4njqqZTvpDzWOW8xVmr1ljrnvyFkYK+vMR1mkNIYQGLkCBCQQ0VVGEjQatOioUM7Sd9/IOuXyKXQq4KGDnmsQENsusH/4Pf3VrFiXEvKZIEul8c52MYCO0CzbrjfB87TvMECD4DV3rbv9EApj9Jr7e1+BHQuw1cXLc1ZQ+43AEGngzZlF0pSFMoFoH3M/qmPNB/C4RXvd5a+zh9ALLUVfoGODgERkqUvebz7p7O3v490+rvB0OKcpQIXSxQAAAABmJLR0QA/wD/AP+gvaeTAAAACXBIWXMAAC4jAAAuIwF4pT92AAAAB3RJTUUH5QoNFxwFvfP8ygAAABl0RVh0Q29tbWVudABDcmVhdGVkIHdpdGggR0lNUFeBDhcAAACUSURBVEjH1ZdBEoAwCAOR8Xk+1//VKyeBJohwFbKm05Eo0lRHpnndsl7FrpxeCOhBM31SJQS9gDcYPQEqNCMahtMFI71UMadfpbtQB9kZHeV2d8bOtTmeCUa+y9pxPyCwXYE7cMgxAoePGnUu6AKP7GD7/KRlKCT2UGLLmO1U6ZqeQkq0GHAoaX4eb6sD/b9/YSrqAccOkMluodH6AAAAAElFTkSuQmCC;" parent="1" vertex="1">
          <mxGeometry x="401" y="40" width="20" height="20" as="geometry" />
        </mxCell>
        <mxCell id="z_o5YdLHFXMN_9M8HcGV-301" value="Tue&lt;br&gt;14:50" style="text;html=1;strokeColor=none;fillColor=none;align=center;verticalAlign=middle;whiteSpace=wrap;rounded=0;fontColor=#FFFFFF;fontSize=12;" parent="1" vertex="1">
          <mxGeometry x="51" y="40" width="50" height="30" as="geometry" />
        </mxCell>
        <mxCell id="z_o5YdLHFXMN_9M8HcGV-302" value="" style="shape=image;verticalLabelPosition=bottom;labelBackgroundColor=#ffffff;verticalAlign=top;aspect=fixed;imageAspect=0;image=data:image/png,iVBORw0KGgoAAAANSUhEUgAAAB4AAAAeCAYAAAA7MK6iAAABg2lDQ1BJQ0MgcHJvZmlsZQAAKJF9kT1Iw0AcxV9TpVJaBO0g4pChOlkQFXHUKhShQqgVWnUwufQLmhiSFBdHwbXg4Mdi1cHFWVcHV0EQ/ABxc3NSdJES/5cUWsR4cNyPd/ced+8AoVFlmtU1Bmi6bWZSSTGXXxFDrwgjij4ACZlZxqwkpeE7vu4R4Otdgmf5n/tzRNWCxYCASDzDDNMmXiee2rQNzvvEMVaWVeJz4lGTLkj8yHXF4zfOJZcFnhkzs5k54hixWOpgpYNZ2dSIJ4njqqZTvpDzWOW8xVmr1ljrnvyFkYK+vMR1mkNIYQGLkCBCQQ0VVGEjQatOioUM7Sd9/IOuXyKXQq4KGDnmsQENsusH/4Pf3VrFiXEvKZIEul8c52MYCO0CzbrjfB87TvMECD4DV3rbv9EApj9Jr7e1+BHQuw1cXLc1ZQ+43AEGngzZlF0pSFMoFoH3M/qmPNB/C4RXvd5a+zh9ALLUVfoGODgERkqUvebz7p7O3v490+rvB0OKcpQIXSxQAAAABmJLR0QA/wD/AP+gvaeTAAAACXBIWXMAAC4jAAAuIwF4pT92AAAAB3RJTUUH5QoNFxwFvfP8ygAAABl0RVh0Q29tbWVudABDcmVhdGVkIHdpdGggR0lNUFeBDhcAAACUSURBVEjH1ZdBEoAwCAOR8Xk+1//VKyeBJohwFbKm05Eo0lRHpnndsl7FrpxeCOhBM31SJQS9gDcYPQEqNCMahtMFI71UMadfpbtQB9kZHeV2d8bOtTmeCUa+y9pxPyCwXYE7cMgxAoePGnUu6AKP7GD7/KRlKCT2UGLLmO1U6ZqeQkq0GHAoaX4eb6sD/b9/YSrqAccOkMluodH6AAAAAElFTkSuQmCC;" parent="1" vertex="1">
          <mxGeometry x="41" y="40" width="20" height="20" as="geometry" />
        </mxCell>
        <mxCell id="z_o5YdLHFXMN_9M8HcGV-303" value="Tue&lt;br&gt;14:50" style="text;html=1;strokeColor=none;fillColor=none;align=center;verticalAlign=middle;whiteSpace=wrap;rounded=0;fontColor=#FFFFFF;fontSize=12;" parent="1" vertex="1">
          <mxGeometry x="50" y="680" width="50" height="30" as="geometry" />
        </mxCell>
        <mxCell id="z_o5YdLHFXMN_9M8HcGV-304" value="" style="shape=image;verticalLabelPosition=bottom;labelBackgroundColor=#ffffff;verticalAlign=top;aspect=fixed;imageAspect=0;image=data:image/png,iVBORw0KGgoAAAANSUhEUgAAAB4AAAAeCAYAAAA7MK6iAAABg2lDQ1BJQ0MgcHJvZmlsZQAAKJF9kT1Iw0AcxV9TpVJaBO0g4pChOlkQFXHUKhShQqgVWnUwufQLmhiSFBdHwbXg4Mdi1cHFWVcHV0EQ/ABxc3NSdJES/5cUWsR4cNyPd/ced+8AoVFlmtU1Bmi6bWZSSTGXXxFDrwgjij4ACZlZxqwkpeE7vu4R4Otdgmf5n/tzRNWCxYCASDzDDNMmXiee2rQNzvvEMVaWVeJz4lGTLkj8yHXF4zfOJZcFnhkzs5k54hixWOpgpYNZ2dSIJ4njqqZTvpDzWOW8xVmr1ljrnvyFkYK+vMR1mkNIYQGLkCBCQQ0VVGEjQatOioUM7Sd9/IOuXyKXQq4KGDnmsQENsusH/4Pf3VrFiXEvKZIEul8c52MYCO0CzbrjfB87TvMECD4DV3rbv9EApj9Jr7e1+BHQuw1cXLc1ZQ+43AEGngzZlF0pSFMoFoH3M/qmPNB/C4RXvd5a+zh9ALLUVfoGODgERkqUvebz7p7O3v490+rvB0OKcpQIXSxQAAAABmJLR0QA/wD/AP+gvaeTAAAACXBIWXMAAC4jAAAuIwF4pT92AAAAB3RJTUUH5QoNFxwFvfP8ygAAABl0RVh0Q29tbWVudABDcmVhdGVkIHdpdGggR0lNUFeBDhcAAACUSURBVEjH1ZdBEoAwCAOR8Xk+1//VKyeBJohwFbKm05Eo0lRHpnndsl7FrpxeCOhBM31SJQS9gDcYPQEqNCMahtMFI71UMadfpbtQB9kZHeV2d8bOtTmeCUa+y9pxPyCwXYE7cMgxAoePGnUu6AKP7GD7/KRlKCT2UGLLmO1U6ZqeQkq0GHAoaX4eb6sD/b9/YSrqAccOkMluodH6AAAAAElFTkSuQmCC;" parent="1" vertex="1">
          <mxGeometry x="40" y="680" width="20" height="20" as="geometry" />
        </mxCell>
      </root>
    </mxGraphModel>
  </diagram>
</mxfile>
